<?xml version="1.0" encoding="UTF-8"?>
<svg version="1.1" xmlns="http://www.w3.org/2000/svg" width="3264" height="3264">
<path d="M0 0 C1077.12 0 2154.24 0 3264 0 C3264 1077.12 3264 2154.24 3264 3264 C2186.88 3264 1109.76 3264 0 3264 C0 2186.88 0 1109.76 0 0 Z " fill="#FE8D03" transform="translate(0,0)"/>
<path d="M0 0 C0.90054998 0.00239074 1.80109996 0.00478148 2.72893934 0.00724467 C3.68145863 0.00584236 4.63397791 0.00444004 5.61536142 0.00299523 C8.85607783 -0.00052678 12.09674784 0.00317342 15.33746366 0.0067527 C17.67476308 0.00571103 20.01206234 0.00423088 22.34936123 0.00234833 C27.47248608 -0.00075467 32.59560131 -0.00070411 37.71872596 0.00203187 C45.38824887 0.00610934 53.0577631 0.00445571 60.72728619 0.00164923 C73.79534966 -0.00296218 86.86340924 -0.00279523 99.93147306 -0.00006989 C113.18305061 0.00267693 126.43462559 0.00326528 139.68620329 0.00119278 C140.52175045 0.0010636 141.35729761 0.00093443 142.21816438 0.00080134 C145.6209586 0.0002681 149.02375282 -0.0002806 152.42654703 -0.00084893 C184.15602868 -0.00614463 215.88550862 -0.00649417 247.61499052 -0.00370148 C248.55612257 -0.00361869 249.49725462 -0.00353589 250.46690582 -0.00345059 C251.88084557 -0.00332619 251.88084557 -0.00332619 253.32334976 -0.00319928 C282.00446655 -0.00067928 310.68558263 -0.00002323 339.3666995 -0.00122193 C341.28496336 -0.00129941 343.20322723 -0.00137656 345.12149109 -0.0014534 C352.82958635 -0.00176385 360.5376816 -0.00208251 368.24577686 -0.00241316 C389.79505657 -0.00333031 411.34433628 -0.00390081 432.89361601 -0.0041993 C433.87503893 -0.00421295 434.85646185 -0.00422659 435.86762487 -0.00424065 C467.15481245 -0.00465012 498.44199979 -0.00352205 529.72918729 -0.00134972 C531.25205194 -0.00124435 531.25205194 -0.00124435 532.80568152 -0.00113684 C549.29409655 0.0000082 565.78251158 0.00122762 582.2709266 0.00245333 C647.67187014 0.00730992 713.07281163 0.00708451 778.47375517 0.00222274 C794.95371529 0.00100162 811.43367541 -0.0002094 827.91363554 -0.00134972 C828.92827305 -0.00142017 829.94291056 -0.00149062 830.98829466 -0.0015632 C862.24193208 -0.00371836 893.49556933 -0.00463385 924.74920683 -0.0041993 C925.72991527 -0.00418572 926.71062372 -0.00417213 927.72105061 -0.00415813 C949.24611525 -0.0038457 970.77117986 -0.00321215 992.29624448 -0.0022888 C999.99757957 -0.00195963 1007.69891465 -0.00164656 1015.40024974 -0.00133809 C1017.31626101 -0.0012607 1019.23227228 -0.00118197 1021.14828355 -0.00110189 C1049.82416167 0.00009327 1078.50003899 -0.00092776 1107.17591701 -0.00345059 C1108.58761509 -0.00357478 1108.58761509 -0.00357478 1110.02783231 -0.00370148 C1110.96723942 -0.00378416 1111.90664653 -0.00386685 1112.87452053 -0.00395203 C1144.50969354 -0.00670597 1176.14486449 -0.00570439 1207.78003721 -0.00042074 C1211.17223132 0.00013165 1214.56442543 0.00066835 1217.95661955 0.00119278 C1218.78916006 0.00132298 1219.62170058 0.00145319 1220.4794696 0.00158734 C1233.69940253 0.00356512 1246.91933292 0.00218078 1260.13926562 -0.00057623 C1273.11640799 -0.0032118 1286.09354602 -0.00231081 1299.07068783 0.00243786 C1306.69319009 0.00512024 1314.3156805 0.00502703 1321.93818221 0.00095626 C1327.57530447 -0.00175285 1333.21241468 0.00067217 1338.84953533 0.00521253 C1341.13206215 0.00622979 1343.41459047 0.00552758 1345.69711612 0.0030066 C1348.76939505 -0.00014905 1351.84160777 0.00272161 1354.91388349 0.00724467 C1355.81443347 0.00485393 1356.71498346 0.00246319 1357.64282283 0 C1363.70725572 0.01843815 1363.70725572 0.01843815 1364.82141142 1.13259384 C1364.92160366 3.91283129 1364.95543655 6.66829188 1364.94791125 9.4490644 C1364.9494378 10.33757214 1364.95096434 11.22607989 1364.95253715 12.14151211 C1364.9564809 15.16404243 1364.95320365 18.18652399 1364.95004587 21.20905468 C1364.95139056 23.38915217 1364.95317333 25.56924944 1364.9553581 27.74934625 C1364.96012259 33.79782356 1364.9585754 39.84628595 1364.95608033 45.89476403 C1364.95462393 51.77803211 1364.95785055 57.66129636 1364.96095087 63.54456352 C1364.96720118 75.73326285 1364.96865454 87.92195864 1364.96753339 100.11065933 C1364.96641081 112.47049389 1364.96743651 124.83032543 1364.97110586 137.19015953 C1364.97133551 137.96949165 1364.97156516 138.74882378 1364.97180178 139.55177203 C1364.97274336 142.72563275 1364.97369905 145.89949346 1364.97467297 149.07335417 C1364.98483021 182.22265683 1364.98787942 215.3719578 1364.98846508 248.52126183 C1364.98852982 252.09200947 1364.98859776 255.6627571 1364.98866849 259.23350474 C1364.98868549 260.11953677 1364.9887025 261.0055688 1364.98872002 261.91845028 C1364.98912806 281.5320192 1364.99131663 301.1455878 1364.99382433 320.75915654 C1364.99485265 328.82925715 1364.99584267 336.89935776 1364.99684058 344.96945837 C1364.99700647 346.3068754 1364.99700647 346.3068754 1364.9971757 347.67131096 C1365.00350193 398.78174929 1365.00762458 449.89218741 1365.00716715 501.00262615 C1365.00715137 502.91634227 1365.00713563 504.83005839 1365.00711994 506.74377451 C1365.00704655 515.38452471 1365.00695838 524.02527491 1365.00686605 532.66602511 C1365.00682493 536.51935309 1365.00678478 540.37268107 1365.00674474 544.22600905 C1365.00672434 546.15467154 1365.00670332 548.08333404 1365.00668168 550.01199653 C1365.00600126 611.01337975 1365.01332078 672.01475717 1365.02722196 733.01613876 C1365.03072279 748.38696515 1365.03419216 763.75779154 1365.03748636 779.12861797 C1365.03779067 780.54815165 1365.03779067 780.54815165 1365.03810113 781.99636278 C1365.0443128 811.14802035 1365.04808105 840.29967744 1365.04934435 869.45133564 C1365.0493843 870.36612465 1365.04942425 871.28091367 1365.04946541 872.22342357 C1365.05031855 892.30194708 1365.05057993 912.38047056 1365.05029503 932.45899408 C1365.05019854 939.64284605 1365.0501465 946.82669802 1365.0501163 954.01054999 C1365.05010839 955.79781179 1365.05009818 957.5850736 1365.05008568 959.37233541 C1365.04990911 987.89030034 1365.05561719 1016.40826033 1365.0642395 1044.92622384 C1365.07287598 1073.63694818 1365.07509227 1102.34766564 1365.06847817 1131.05839073 C1365.06756579 1135.02013617 1365.06672253 1138.98188162 1365.06592016 1142.94362709 C1365.06568003 1144.10861384 1365.06568003 1144.10861384 1365.06543505 1145.29713568 C1365.06307613 1157.62671499 1365.0674532 1169.95628245 1365.07459135 1182.28585953 C1365.08145993 1194.39079229 1365.08126407 1206.49570745 1365.07339921 1218.6006398 C1365.0694846 1225.08385492 1365.06883589 1231.56702772 1365.07685656 1238.05024 C1365.08407408 1243.93532138 1365.08227235 1249.82032477 1365.07293269 1255.70540254 C1365.07119562 1257.83352936 1365.07289017 1259.96166211 1365.0782339 1262.08978294 C1365.08495725 1264.95687751 1365.07959471 1267.82369102 1365.07095908 1270.69077411 C1365.0758587 1271.52816391 1365.08075832 1272.36555372 1365.08580641 1273.22831897 C1365.04972212 1278.90428313 1365.04972212 1278.90428313 1362.82141142 1281.13259384 C1360.53329147 1281.38456685 1360.53329147 1281.38456685 1357.60369174 1281.38740286 C1356.48829882 1281.39333086 1355.37290591 1281.39925887 1354.2237132 1281.40536651 C1352.36654267 1281.39989198 1352.36654267 1281.39989198 1350.47185354 1281.39430687 C1349.16105624 1281.39830293 1347.85025895 1281.40229899 1346.49974053 1281.40641614 C1342.83279723 1281.41731076 1339.16594734 1281.41564012 1335.4989935 1281.41206543 C1331.52050524 1281.41036751 1327.54204352 1281.42020301 1323.56356613 1281.42861947 C1316.58139202 1281.44178097 1309.59924218 1281.44747959 1302.61705618 1281.4483802 C1292.23470612 1281.44975275 1281.85239227 1281.46251521 1271.4700543 1281.47766794 C1254.00774369 1281.50282828 1236.54543612 1281.51866735 1219.08311109 1281.52924987 C1201.78560127 1281.53976278 1184.48810302 1281.5543844 1167.19060163 1281.57453033 C1165.57917972 1281.57640363 1165.57917972 1281.57640363 1163.93520383 1281.57831478 C1158.47978687 1281.58467826 1153.02437 1281.59111551 1147.56895316 1281.59758116 C1108.89757809 1281.6432809 1070.22619926 1281.67971264 1031.55480985 1281.71071884 C993.97895789 1281.74086779 956.40311363 1281.77523309 918.82727079 1281.81521102 C916.46562549 1281.81771772 914.10398019 1281.8202243 911.74233489 1281.82273075 C892.5539191 1281.84311829 873.36550362 1281.86379758 854.17708822 1281.88454762 C765.39187177 1281.98034802 676.60664921 1282.05482336 587.82141142 1282.13259384 C587.32641142 1555.86759384 587.32641142 1555.86759384 586.82141142 1835.13259384 C584.5475213 1836.26953889 583.3157611 1836.25771047 580.79106782 1836.257943 C579.94111331 1836.26044652 579.0911588 1836.26295004 578.2154481 1836.26552942 C577.27442416 1836.26318825 576.33340023 1836.26084709 575.36386041 1836.25843498 C573.86663756 1836.26061514 573.86663756 1836.26061514 572.33916779 1836.26283934 C568.95574693 1836.26652232 565.57237048 1836.26300234 562.18894987 1836.25957748 C559.754304 1836.26072839 557.3196583 1836.26231571 554.88501297 1836.26430472 C549.57165921 1836.2676233 544.25831885 1836.26780048 538.94496565 1836.26525756 C531.04408308 1836.26148649 523.14320912 1836.26340286 515.24232662 1836.26646587 C501.13443329 1836.27174131 487.02654449 1836.27127139 472.91865073 1836.26838696 C460.57350381 1836.2658752 448.22835854 1836.26521293 435.88321142 1836.2664096 C435.06554942 1836.26648599 434.24788743 1836.26656237 433.40544779 1836.26664107 C430.08662275 1836.26695239 426.76779771 1836.26727079 423.44897268 1836.26760084 C392.29257467 1836.27066238 361.13617955 1836.2678823 329.979782 1836.26250394 C302.27391409 1836.25775761 274.56805077 1836.25818304 246.8621829 1836.26296493 C215.76265548 1836.26831455 184.66313061 1836.27044573 153.56360279 1836.26735267 C150.25100041 1836.26703193 146.93839803 1836.26671909 143.62579565 1836.2664096 C142.81009729 1836.26633053 141.99439893 1836.26625145 141.15398244 1836.26616997 C128.8131894 1836.26503047 116.47239821 1836.26636653 104.13160543 1836.26888916 C90.10630485 1836.27174175 76.0810095 1836.27104785 62.05570958 1836.26560841 C54.1974523 1836.26266163 46.33920636 1836.2624955 38.48094936 1836.26625459 C32.62954174 1836.268746 26.77814425 1836.2660643 20.92673778 1836.26128001 C18.54725328 1836.26015465 16.16776729 1836.26074961 13.78828374 1836.2631558 C10.57654056 1836.26615669 7.36486102 1836.26311853 4.15312128 1836.25843498 C2.73807363 1836.26194673 2.73807363 1836.26194673 1.29443915 1836.26552942 C-5.06443824 1836.24674418 -5.06443824 1836.24674418 -6.17858858 1835.13259384 C-6.34033253 1833.11354636 -6.42823688 1831.08861643 -6.49053057 1829.06405887 C-6.51100967 1828.40155635 -6.53148878 1827.73905384 -6.55258846 1827.05647549 C-6.62008427 1824.74507677 -6.67759425 1822.43358075 -6.73315211 1820.121865 C-6.75412719 1819.28630776 -6.77510227 1818.45075052 -6.79671296 1817.58987336 C-7.49295631 1788.83298546 -7.31988004 1760.05721052 -7.30807749 1731.29381955 C-7.30453835 1722.14829352 -7.30699659 1713.00277111 -7.30953319 1703.85724509 C-7.31410406 1686.7742205 -7.31399753 1669.6911989 -7.31125231 1652.60817405 C-7.30849141 1635.32181429 -7.30792841 1618.03545649 -7.30998965 1600.7490966 C-7.31011882 1599.65323428 -7.31024799 1598.55737195 -7.31038108 1597.42830168 C-7.3109144 1592.9643757 -7.31146312 1588.50044972 -7.31203135 1584.03652375 C-7.31730713 1542.56201725 -7.31768556 1501.08751206 -7.3148839 1459.61300537 C-7.31480111 1458.38674914 -7.31471831 1457.16049292 -7.31463301 1455.89707742 C-7.31455008 1454.66885516 -7.31446715 1453.44063291 -7.31438171 1452.1751918 C-7.31185595 1414.71833358 -7.31120834 1377.2614759 -7.31240435 1339.80461761 C-7.31248183 1337.29384337 -7.31255899 1334.78306913 -7.31263582 1332.27229489 C-7.31294629 1322.18229707 -7.31326496 1312.09229925 -7.31359558 1302.00230143 C-7.31451238 1273.80242004 -7.31508313 1245.60253864 -7.31538172 1217.40265724 C-7.31539537 1216.11876705 -7.31540901 1214.83487686 -7.31542307 1213.5120809 C-7.31583208 1172.62954329 -7.31470768 1131.74700585 -7.31253214 1090.8644683 C-7.31247946 1089.87071148 -7.31247946 1089.87071148 -7.31242572 1088.85687875 C-7.31124947 1066.66812925 -7.30999336 1044.47937975 -7.30872909 1022.29063025 C-7.30490561 955.14047866 -7.30281876 887.99032778 -7.30884442 768.00069543 C-7.31010762 745.77075168 -7.31135614 723.54080793 -7.31253214 701.31086418 C-7.31256739 700.64720857 -7.31260263 699.98355297 -7.31263894 699.29978659 C-7.31484339 657.75465479 -7.31582346 616.2095231 -7.31538172 574.66439125 C-7.31536814 573.38196153 -7.31535455 572.09953182 -7.31534056 570.7782406 C-7.31502814 542.63280607 -7.31439462 514.48737155 -7.31347122 486.34193704 C-7.31314207 476.27306447 -7.31282899 466.20419189 -7.31252051 456.13531932 C-7.31244312 453.63045379 -7.31236439 451.12558826 -7.31228431 448.62072273 C-7.3110896 411.14662231 -7.31210923 373.67252251 -7.31463301 336.19842217 C-7.3147158 334.96901972 -7.3147986 333.73961727 -7.3148839 332.4729602 C-7.31496659 331.24582583 -7.31504927 330.01869146 -7.31513446 328.7543712 C-7.31788777 287.43968196 -7.31688787 246.12499429 -7.31160316 204.81030528 C-7.31105077 200.38115376 -7.31051407 195.95200224 -7.30998965 191.52285072 C-7.30985944 190.43583088 -7.30972923 189.34881104 -7.30959508 188.22885121 C-7.30761726 170.96779154 -7.30900166 153.70673383 -7.31175865 136.44567434 C-7.31439394 119.50334504 -7.31349374 102.56101905 -7.30874456 85.61869017 C-7.30606201 75.66757042 -7.30615571 65.71645973 -7.31022616 55.76534039 C-7.31265217 49.17476785 -7.31151644 42.58420243 -7.30735931 35.99363076 C-7.30509852 32.2461717 -7.30446216 28.49873082 -7.30817582 24.75127251 C-7.3121157 20.74133611 -7.3084619 16.73144457 -7.30393775 12.72150883 C-7.30632849 11.54526534 -7.30871923 10.36902185 -7.31118242 9.15713461 C-7.30872392 8.10237817 -7.30626542 7.04762172 -7.30373242 5.96090296 C-7.30370445 5.04541946 -7.30367648 4.12993596 -7.30364767 3.18671053 C-7.0327038 -1.26358845 -3.69024189 0.01121972 0 0 Z " fill="#FFFEFE" transform="translate(609.1785885840654,475.867406162899)"/>
<path d="M0 0 C0.91798142 0.00234117 1.83596284 0.00468233 2.78176188 0.00709444 C3.75174263 0.005641 4.72172337 0.00418756 5.72109747 0.00269008 C9.01472082 -0.00099795 12.30829869 0.00252938 15.6019218 0.00595194 C17.96970781 0.00480123 20.33749365 0.00321404 22.70527911 0.0012247 C27.875646 -0.00209569 33.04600342 -0.00226974 38.21637034 0.00027186 C45.90465225 0.00404099 53.5929253 0.00212758 61.28120714 -0.00093645 C75.00928905 -0.0062135 88.73736632 -0.00574131 102.46544868 -0.00285754 C114.47881538 -0.00034622 126.49218038 0.0003167 138.50554729 -0.00088018 C139.69887107 -0.00099476 139.69887107 -0.00099476 140.9163024 -0.00111165 C144.1453476 -0.00142297 147.3743928 -0.00174137 150.603438 -0.00207142 C180.92088284 -0.00513337 211.23832473 -0.00235228 241.55576912 0.00302548 C268.51630467 0.00777141 295.4768355 0.0073468 322.43737102 0.00256449 C352.69784882 -0.00278517 382.958324 -0.00491625 413.21880221 -0.00182325 C416.44211014 -0.00150251 419.66541807 -0.00118967 422.888726 -0.00088018 C423.68244045 -0.0008011 424.4761549 -0.00072203 425.29392131 -0.00064055 C437.3024523 0.00049898 449.3109814 -0.00083718 461.31951213 -0.00335974 C474.96787965 -0.00621239 488.61624178 -0.00551831 502.26460862 -0.00007899 C509.91179131 0.00286777 517.55896236 0.00303396 525.20614476 -0.00072517 C530.90047047 -0.00321663 536.59478399 -0.0005348 542.2891078 0.00424941 C544.60469259 0.00537475 546.92027892 0.00477986 549.23586273 0.00237362 C552.36143527 -0.0006274 555.4869424 0.00241102 558.6125114 0.00709444 C559.53049282 0.00475328 560.44847424 0.00241211 561.39427328 0 C567.58298631 0.01878525 567.58298631 0.01878525 568.69713664 1.13293558 C568.79630214 3.33927045 568.8226945 5.54886501 568.82297778 7.75742728 C568.82443113 8.46441968 568.82588449 9.17141208 568.82738188 9.89982849 C568.83107698 12.31024915 568.82753468 14.72060786 568.82412028 17.13102823 C568.82527421 18.87764582 568.8268641 20.62426317 568.82885182 22.37088001 C568.83308009 27.24533953 568.83093884 32.11977974 568.82786763 36.99423939 C568.82558775 42.33316937 568.82906854 47.67209613 568.83177257 53.01102549 C568.83626332 63.80486327 568.83510658 74.59869427 568.83230333 85.39253234 C568.83005009 94.62151996 568.8300339 103.85050591 568.83145595 113.07949358 C568.83155672 113.75308919 568.83165749 114.42668479 568.83176132 115.12069238 C568.83217417 117.87474793 568.83259299 120.62880347 568.83302191 123.38285902 C568.83744418 152.18728347 568.83415004 180.99170436 568.82820525 209.79612832 C568.82736286 213.88206073 568.82653031 217.96799315 568.8257072 222.05392557 C568.82546083 223.2745204 568.82546083 223.2745204 568.82520948 224.51977371 C568.82177418 241.77212752 568.82059234 259.02448124 568.81971326 276.27683534 C568.81459233 375.63701703 568.78364594 474.99718782 568.47631798 936.27143465 C568.47192405 941.89168389 568.46753951 947.51193314 568.46316034 953.13218239 C568.46192514 954.71689678 568.46068991 956.30161118 568.45945466 957.88632557 C568.45723081 960.73931364 568.45500859 963.5923017 568.45278762 966.44528976 C568.22597312 1257.3411922 567.95525188 1548.23706069 567.69713664 1839.13293558 C124.17713664 1839.13293558 -319.34286336 1839.13293558 -776.30286336 1839.13293558 C-776.30286336 1365.13293558 -776.30286336 1365.13293558 -775.30286336 1364.13293558 C-773.62231131 1364.0352605 -771.9376145 1364.00846305 -770.25422639 1364.00873709 C-769.15111468 1364.00648979 -768.04800298 1364.0042425 -766.91146365 1364.00192711 C-765.68195336 1364.00455412 -764.45244308 1364.00718113 -763.18567491 1364.00988775 C-761.88785007 1364.00873391 -760.59002524 1364.00758007 -759.25287238 1364.00639126 C-755.61766705 1364.00330199 -751.98248937 1364.00651401 -748.34728609 1364.01066939 C-744.40493313 1364.01408645 -740.46258314 1364.01173608 -736.52022964 1364.0100919 C-729.5999304 1364.00801212 -722.67963973 1364.00967218 -715.75934148 1364.01373011 C-705.46899563 1364.01974747 -695.17865523 1364.02006756 -684.88830794 1364.01918812 C-667.58109184 1364.01787196 -650.27387955 1364.02122418 -632.96666455 1364.02720553 C-615.82184447 1364.03311561 -598.67702596 1364.03697007 -581.53220487 1364.03805834 C-579.93523649 1364.03816145 -579.93523649 1364.03816145 -578.30600612 1364.03826664 C-572.89956058 1364.03860496 -567.49311505 1364.03890635 -562.08666951 1364.03919352 C-523.75858656 1364.04129585 -485.43050569 1364.04803856 -447.10242391 1364.05749613 C-409.85925996 1364.06667541 -372.61609657 1364.07376155 -335.37293172 1364.07800394 C-334.2256283 1364.07813547 -333.07832489 1364.078267 -331.89625471 1364.07840251 C-320.37492319 1364.07972099 -308.85359167 1364.08099681 -297.33226014 1364.08224137 C-273.86043014 1364.08477781 -250.38860017 1364.08759907 -226.91677022 1364.09059244 C-225.29785292 1364.09079838 -225.29785292 1364.09079838 -223.64623021 1364.09100847 C-151.53177373 1364.10021447 -79.4173184 1364.11606029 -7.30286336 1364.13293558 C-7.30301934 1362.94983765 -7.30317532 1361.76673971 -7.30333603 1360.54779032 C-7.30866876 1320.04174827 -7.31377937 1279.5357062 -7.3187325 1239.0296641 C-7.3188323 1238.21369222 -7.3189321 1237.39772034 -7.31903492 1236.55702204 C-7.32971884 1149.15222721 -7.33894284 1061.74743238 -7.3452065 974.34263712 C-7.34534595 972.40189549 -7.3454854 970.46115386 -7.34562485 968.52041223 C-7.34854732 927.78680253 -7.35126406 887.05319282 -7.35374304 846.31958308 C-7.35498847 825.85878383 -7.35627344 805.39798458 -7.3575958 784.93718533 C-7.35779505 781.85068501 -7.35799317 778.76418469 -7.35819124 775.67768438 C-7.36125246 728.13066343 -7.3651636 680.58364274 -7.37152791 633.03662211 C-7.37166481 632.0137457 -7.37180171 630.99086929 -7.37194276 629.93699663 C-7.37415522 613.44442665 -7.37643879 596.95185668 -7.3787318 580.45928672 C-7.38533253 532.97538832 -7.39141044 485.49149012 -7.39400315 438.00759131 C-7.39408346 436.54394526 -7.39408346 436.54394526 -7.39416538 435.0507306 C-7.39533094 413.63413768 -7.39622589 392.21754475 -7.39686434 370.80095181 C-7.39712598 362.18459725 -7.3974266 353.5682427 -7.3977406 344.95188814 C-7.39777403 344.00884561 -7.39780746 343.06580308 -7.3978419 342.09418351 C-7.39893965 311.67221104 -7.40321515 281.25024004 -7.40914557 250.82826816 C-7.41510143 220.20150452 -7.41796506 189.5747423 -7.41648735 158.94797807 C-7.41628425 154.72238896 -7.41611687 150.49679984 -7.41597104 146.27121073 C-7.41594116 145.4428241 -7.41591128 144.61443748 -7.41588049 143.76094822 C-7.41549881 130.60697246 -7.41849336 117.45299969 -7.42287322 104.29902474 C-7.42710405 91.38658871 -7.42781394 78.47415658 -7.42469517 65.56172019 C-7.42312345 58.64522509 -7.42316112 51.72873915 -7.42774654 44.81224514 C-7.43175716 38.53518306 -7.43126864 32.25813896 -7.42700334 25.9810772 C-7.42628199 23.70992304 -7.42728062 21.4387676 -7.4300986 19.16761507 C-7.43365472 16.11063072 -7.4311842 13.05371211 -7.42706186 9.99672997 C-7.42957073 9.10067663 -7.43207961 8.20462328 -7.43466451 7.28141681 C-7.4135715 0.06838872 -7.19984377 0.02185444 0 0 Z " fill="#FEFEFE" transform="translate(2077.3028633594513,474.86706441640854)"/>
<path d="M0 0 C675.18 0 1350.36 0 2046 0 C2046 160.05 2046 320.1 2046 485 C1370.82 485 695.64 485 0 485 C0 324.95 0 164.9 0 0 Z " fill="#FFFEFE" transform="translate(602,2392)"/>
<path d="M0 0 C61.71 0 123.42 0 187 0 C188.89473486 1.89473486 188.12552415 5.22897596 188.12584114 7.74201965 C188.12729458 8.45874434 188.12874802 9.17546903 188.13024551 9.91391265 C188.13393166 12.34603079 188.13040708 14.77808727 188.12698364 17.21020508 C188.12813443 18.95927113 188.12972167 20.70833693 188.13171089 22.45740223 C188.13591003 27.28748606 188.1338109 32.11755029 188.13072467 36.94763422 C188.12847315 42.14741306 188.13194893 47.3471884 188.13470459 52.54696655 C188.13916396 62.7427251 188.13818508 72.9384763 188.13529195 83.13423514 C188.13303857 91.41652725 188.13272511 99.69881729 188.13381577 107.98110962 C188.133969 109.15743857 188.13412223 110.33376752 188.13428011 111.54574281 C188.13459982 113.93502355 188.13492403 116.32430428 188.1352527 118.71358502 C188.13810798 141.14666823 188.13481972 163.57974736 188.12945233 186.0128299 C188.12498425 205.28427146 188.12576017 224.55570699 188.13037109 243.82714844 C188.13571601 266.17696958 188.13783328 288.52678715 188.13475883 310.87660885 C188.13444026 313.25736936 188.13412589 315.63812987 188.13381577 318.01889038 C188.13366149 319.19043743 188.13350721 320.36198449 188.13334826 321.56903297 C188.13248286 329.84661082 188.13394649 338.12418641 188.13629532 346.40176392 C188.1390926 356.48184661 188.13835658 366.56192151 188.13301457 376.6420033 C188.13037659 381.79036593 188.12937413 386.93871554 188.13266373 392.08707809 C188.1356247 396.79210829 188.13403723 401.49711329 188.12868617 406.20214117 C188.12756113 407.91207713 188.12815507 409.62201519 188.13056196 411.33194983 C188.13356455 413.64065774 188.13052294 415.94927721 188.12584114 418.25798035 C188.12567879 419.54506991 188.12551644 420.83215948 188.12534916 422.15825176 C188 425 188 425 187 426 C125.29 426 63.58 426 0 426 C0 285.42 0 144.84 0 0 Z " fill="#FF9603" transform="translate(1194,899)"/>
<path d="M0 0 C0.91798142 0.00234117 1.83596284 0.00468233 2.78176188 0.00709444 C3.75174263 0.005641 4.72172337 0.00418756 5.72109747 0.00269008 C9.01472082 -0.00099795 12.30829869 0.00252938 15.6019218 0.00595194 C17.96970781 0.00480123 20.33749365 0.00321404 22.70527911 0.0012247 C27.875646 -0.00209569 33.04600342 -0.00226974 38.21637034 0.00027186 C45.90465225 0.00404099 53.5929253 0.00212758 61.28120714 -0.00093645 C75.00928905 -0.0062135 88.73736632 -0.00574131 102.46544868 -0.00285754 C114.47881538 -0.00034622 126.49218038 0.0003167 138.50554729 -0.00088018 C139.69887107 -0.00099476 139.69887107 -0.00099476 140.9163024 -0.00111165 C144.1453476 -0.00142297 147.3743928 -0.00174137 150.603438 -0.00207142 C180.92088284 -0.00513337 211.23832473 -0.00235228 241.55576912 0.00302548 C268.51630467 0.00777141 295.4768355 0.0073468 322.43737102 0.00256449 C352.69784882 -0.00278517 382.958324 -0.00491625 413.21880221 -0.00182325 C416.44211014 -0.00150251 419.66541807 -0.00118967 422.888726 -0.00088018 C423.68244045 -0.0008011 424.4761549 -0.00072203 425.29392131 -0.00064055 C437.3024523 0.00049898 449.3109814 -0.00083718 461.31951213 -0.00335974 C474.96787965 -0.00621239 488.61624178 -0.00551831 502.26460862 -0.00007899 C509.91179131 0.00286777 517.55896236 0.00303396 525.20614476 -0.00072517 C530.90047047 -0.00321663 536.59478399 -0.0005348 542.2891078 0.00424941 C544.60469259 0.00537475 546.92027892 0.00477986 549.23586273 0.00237362 C552.36143527 -0.0006274 555.4869424 0.00241102 558.6125114 0.00709444 C559.53049282 0.00475328 560.44847424 0.00241211 561.39427328 0 C567.58298631 0.01878525 567.58298631 0.01878525 568.69713664 1.13293558 C568.79630214 3.33927045 568.8226945 5.54886501 568.82297778 7.75742728 C568.82443113 8.46441968 568.82588449 9.17141208 568.82738188 9.89982849 C568.83107698 12.31024915 568.82753468 14.72060786 568.82412028 17.13102823 C568.82527421 18.87764582 568.8268641 20.62426317 568.82885182 22.37088001 C568.83308009 27.24533953 568.83093884 32.11977974 568.82786763 36.99423939 C568.82558775 42.33316937 568.82906854 47.67209613 568.83177257 53.01102549 C568.83626332 63.80486327 568.83510658 74.59869427 568.83230333 85.39253234 C568.83005009 94.62151996 568.8300339 103.85050591 568.83145595 113.07949358 C568.83155672 113.75308919 568.83165749 114.42668479 568.83176132 115.12069238 C568.83217417 117.87474793 568.83259299 120.62880347 568.83302191 123.38285902 C568.83744418 152.18728347 568.83415004 180.99170436 568.82820525 209.79612832 C568.82736286 213.88206073 568.82653031 217.96799315 568.8257072 222.05392557 C568.82546083 223.2745204 568.82546083 223.2745204 568.82520948 224.51977371 C568.82177418 241.77212752 568.82059234 259.02448124 568.81971326 276.27683534 C568.81459233 375.63701703 568.78364594 474.99718782 568.47631798 936.27143465 C568.47192405 941.89168389 568.46753951 947.51193314 568.46316034 953.13218239 C568.46192514 954.71689678 568.46068991 956.30161118 568.45945466 957.88632557 C568.45723081 960.73931364 568.45500859 963.5923017 568.45278762 966.44528976 C568.22597312 1257.3411922 567.95525188 1548.23706069 567.69713664 1839.13293558 C124.17713664 1839.13293558 -319.34286336 1839.13293558 -776.30286336 1839.13293558 C-776.30286336 1365.13293558 -776.30286336 1365.13293558 -775.30286336 1364.13293558 C-773.62231131 1364.0352605 -771.9376145 1364.00846305 -770.25422639 1364.00873709 C-769.15111468 1364.00648979 -768.04800298 1364.0042425 -766.91146365 1364.00192711 C-765.68195336 1364.00455412 -764.45244308 1364.00718113 -763.18567491 1364.00988775 C-761.88785007 1364.00873391 -760.59002524 1364.00758007 -759.25287238 1364.00639126 C-755.61766705 1364.00330199 -751.98248937 1364.00651401 -748.34728609 1364.01066939 C-744.40493313 1364.01408645 -740.46258314 1364.01173608 -736.52022964 1364.0100919 C-729.5999304 1364.00801212 -722.67963973 1364.00967218 -715.75934148 1364.01373011 C-705.46899563 1364.01974747 -695.17865523 1364.02006756 -684.88830794 1364.01918812 C-667.58109184 1364.01787196 -650.27387955 1364.02122418 -632.96666455 1364.02720553 C-615.82184447 1364.03311561 -598.67702596 1364.03697007 -581.53220487 1364.03805834 C-579.93523649 1364.03816145 -579.93523649 1364.03816145 -578.30600612 1364.03826664 C-572.89956058 1364.03860496 -567.49311505 1364.03890635 -562.08666951 1364.03919352 C-523.75858656 1364.04129585 -485.43050569 1364.04803856 -447.10242391 1364.05749613 C-409.85925996 1364.06667541 -372.61609657 1364.07376155 -335.37293172 1364.07800394 C-334.2256283 1364.07813547 -333.07832489 1364.078267 -331.89625471 1364.07840251 C-320.37492319 1364.07972099 -308.85359167 1364.08099681 -297.33226014 1364.08224137 C-273.86043014 1364.08477781 -250.38860017 1364.08759907 -226.91677022 1364.09059244 C-225.29785292 1364.09079838 -225.29785292 1364.09079838 -223.64623021 1364.09100847 C-151.53177373 1364.10021447 -79.4173184 1364.11606029 -7.30286336 1364.13293558 C-7.30301934 1362.94983765 -7.30317532 1361.76673971 -7.30333603 1360.54779032 C-7.30866876 1320.04174827 -7.31377937 1279.5357062 -7.3187325 1239.0296641 C-7.3188323 1238.21369222 -7.3189321 1237.39772034 -7.31903492 1236.55702204 C-7.32971884 1149.15222721 -7.33894284 1061.74743238 -7.3452065 974.34263712 C-7.34534595 972.40189549 -7.3454854 970.46115386 -7.34562485 968.52041223 C-7.34854732 927.78680253 -7.35126406 887.05319282 -7.35374304 846.31958308 C-7.35498847 825.85878383 -7.35627344 805.39798458 -7.3575958 784.93718533 C-7.35779505 781.85068501 -7.35799317 778.76418469 -7.35819124 775.67768438 C-7.36125246 728.13066343 -7.3651636 680.58364274 -7.37152791 633.03662211 C-7.37166481 632.0137457 -7.37180171 630.99086929 -7.37194276 629.93699663 C-7.37415522 613.44442665 -7.37643879 596.95185668 -7.3787318 580.45928672 C-7.38533253 532.97538832 -7.39141044 485.49149012 -7.39400315 438.00759131 C-7.39408346 436.54394526 -7.39408346 436.54394526 -7.39416538 435.0507306 C-7.39533094 413.63413768 -7.39622589 392.21754475 -7.39686434 370.80095181 C-7.39712598 362.18459725 -7.3974266 353.5682427 -7.3977406 344.95188814 C-7.39777403 344.00884561 -7.39780746 343.06580308 -7.3978419 342.09418351 C-7.39893965 311.67221104 -7.40321515 281.25024004 -7.40914557 250.82826816 C-7.41510143 220.20150452 -7.41796506 189.5747423 -7.41648735 158.94797807 C-7.41628425 154.72238896 -7.41611687 150.49679984 -7.41597104 146.27121073 C-7.41594116 145.4428241 -7.41591128 144.61443748 -7.41588049 143.76094822 C-7.41549881 130.60697246 -7.41849336 117.45299969 -7.42287322 104.29902474 C-7.42710405 91.38658871 -7.42781394 78.47415658 -7.42469517 65.56172019 C-7.42312345 58.64522509 -7.42316112 51.72873915 -7.42774654 44.81224514 C-7.43175716 38.53518306 -7.43126864 32.25813896 -7.42700334 25.9810772 C-7.42628199 23.70992304 -7.42728062 21.4387676 -7.4300986 19.16761507 C-7.43365472 16.11063072 -7.4311842 13.05371211 -7.42706186 9.99672997 C-7.42957073 9.10067663 -7.43207961 8.20462328 -7.43466451 7.28141681 C-7.4135715 0.06838872 -7.19984377 0.02185444 0 0 Z M-2.30286336 4.13293558 C-2.63286336 16.67293558 -2.96286336 29.21293558 -3.30286336 42.13293558 C-3.96286336 42.79293558 -4.62286336 43.45293558 -5.30286336 44.13293558 C-5.4995085 47.07233443 -5.56828859 49.91743202 -5.55126035 52.85803527 C-5.55381652 53.77862436 -5.5563727 54.69921345 -5.55900633 55.64769918 C-5.56519633 58.77359898 -5.55696719 61.89930171 -5.54895902 65.02519518 C-5.55043662 67.28210267 -5.552792 69.53900973 -5.55595201 71.79591548 C-5.56212931 78.05299994 -5.55570753 84.3100201 -5.54739575 90.5670998 C-5.54126439 96.6546011 -5.5445318 102.74209071 -5.54756288 108.8295931 C-5.5535057 121.44028271 -5.54993576 134.05095386 -5.54127431 146.66164118 C-5.53253052 159.44838269 -5.5281277 172.23511464 -5.52907872 185.02185923 C-5.52913611 185.8282584 -5.52919349 186.63465758 -5.52925261 187.46549309 C-5.52956535 191.57702958 -5.52994925 195.68856606 -5.53035829 199.80010253 C-5.53317634 229.5912073 -5.52630104 259.38230356 -5.51432347 289.17340571 C-5.5024867 318.68470527 -5.49477493 348.19600119 -5.49261785 377.70730311 C-5.49254902 378.62312499 -5.4924802 379.53894688 -5.49240929 380.48252094 C-5.49178291 388.84689424 -5.49120752 397.21126754 -5.49069334 405.57564085 C-5.48941439 426.37041906 -5.48749565 447.16519719 -5.48514295 467.9599753 C-5.48503631 468.90702204 -5.48492968 469.85406877 -5.48481981 470.82981389 C-5.47957421 516.92092744 -5.46695804 563.01203859 -5.45374227 609.10315043 C-5.44915903 625.10184833 -5.44460834 641.10054623 -5.44019246 657.09924418 C-5.43991856 658.09145766 -5.43964466 659.08367113 -5.43936247 660.10595169 C-5.42668044 706.20895868 -5.41924665 752.31196608 -5.41312682 798.41497435 C-5.41272568 801.43068073 -5.41232108 804.44638711 -5.41191535 807.46209349 C-5.40768866 838.88933916 -5.40371446 870.31658487 -5.3998498 901.74383059 C-5.39973937 902.64168233 -5.39962895 903.53953407 -5.39951517 904.46459344 C-5.3993144 906.09826652 -5.39911392 907.73193961 -5.39891386 909.3656127 C-5.38021564 1061.62139151 -5.33989154 1213.87715806 -5.30286336 1366.13293558 C-385.46286336 1366.62793558 -385.46286336 1366.62793558 -773.30286336 1367.13293558 C-773.30286336 1522.56293558 -773.30286336 1677.99293558 -773.30286336 1838.13293558 C-331.76286336 1838.13293558 109.77713664 1838.13293558 564.69713664 1838.13293558 C564.69713664 1232.91293558 564.69713664 627.69293558 564.69713664 4.13293558 C377.58713664 4.13293558 190.47713664 4.13293558 -2.30286336 4.13293558 Z " fill="#FEEAD1" transform="translate(2077.3028633594513,474.86706441640854)"/>
<path d="M0 0 C0.90054998 0.00239074 1.80109996 0.00478148 2.72893934 0.00724467 C3.68145863 0.00584236 4.63397791 0.00444004 5.61536142 0.00299523 C8.85607783 -0.00052678 12.09674784 0.00317342 15.33746366 0.0067527 C17.67476308 0.00571103 20.01206234 0.00423088 22.34936123 0.00234833 C27.47248608 -0.00075467 32.59560131 -0.00070411 37.71872596 0.00203187 C45.38824887 0.00610934 53.0577631 0.00445571 60.72728619 0.00164923 C73.79534966 -0.00296218 86.86340924 -0.00279523 99.93147306 -0.00006989 C113.18305061 0.00267693 126.43462559 0.00326528 139.68620329 0.00119278 C140.52175045 0.0010636 141.35729761 0.00093443 142.21816438 0.00080134 C145.6209586 0.0002681 149.02375282 -0.0002806 152.42654703 -0.00084893 C184.15602868 -0.00614463 215.88550862 -0.00649417 247.61499052 -0.00370148 C248.55612257 -0.00361869 249.49725462 -0.00353589 250.46690582 -0.00345059 C251.88084557 -0.00332619 251.88084557 -0.00332619 253.32334976 -0.00319928 C282.00446655 -0.00067928 310.68558263 -0.00002323 339.3666995 -0.00122193 C341.28496336 -0.00129941 343.20322723 -0.00137656 345.12149109 -0.0014534 C352.82958635 -0.00176385 360.5376816 -0.00208251 368.24577686 -0.00241316 C389.79505657 -0.00333031 411.34433628 -0.00390081 432.89361601 -0.0041993 C433.87503893 -0.00421295 434.85646185 -0.00422659 435.86762487 -0.00424065 C467.15481245 -0.00465012 498.44199979 -0.00352205 529.72918729 -0.00134972 C531.25205194 -0.00124435 531.25205194 -0.00124435 532.80568152 -0.00113684 C549.29409655 0.0000082 565.78251158 0.00122762 582.2709266 0.00245333 C647.67187014 0.00730992 713.07281163 0.00708451 778.47375517 0.00222274 C794.95371529 0.00100162 811.43367541 -0.0002094 827.91363554 -0.00134972 C828.92827305 -0.00142017 829.94291056 -0.00149062 830.98829466 -0.0015632 C862.24193208 -0.00371836 893.49556933 -0.00463385 924.74920683 -0.0041993 C925.72991527 -0.00418572 926.71062372 -0.00417213 927.72105061 -0.00415813 C949.24611525 -0.0038457 970.77117986 -0.00321215 992.29624448 -0.0022888 C999.99757957 -0.00195963 1007.69891465 -0.00164656 1015.40024974 -0.00133809 C1017.31626101 -0.0012607 1019.23227228 -0.00118197 1021.14828355 -0.00110189 C1049.82416167 0.00009327 1078.50003899 -0.00092776 1107.17591701 -0.00345059 C1108.58761509 -0.00357478 1108.58761509 -0.00357478 1110.02783231 -0.00370148 C1110.96723942 -0.00378416 1111.90664653 -0.00386685 1112.87452053 -0.00395203 C1144.50969354 -0.00670597 1176.14486449 -0.00570439 1207.78003721 -0.00042074 C1211.17223132 0.00013165 1214.56442543 0.00066835 1217.95661955 0.00119278 C1218.78916006 0.00132298 1219.62170058 0.00145319 1220.4794696 0.00158734 C1233.69940253 0.00356512 1246.91933292 0.00218078 1260.13926562 -0.00057623 C1273.11640799 -0.0032118 1286.09354602 -0.00231081 1299.07068783 0.00243786 C1306.69319009 0.00512024 1314.3156805 0.00502703 1321.93818221 0.00095626 C1327.57530447 -0.00175285 1333.21241468 0.00067217 1338.84953533 0.00521253 C1341.13206215 0.00622979 1343.41459047 0.00552758 1345.69711612 0.0030066 C1348.76939505 -0.00014905 1351.84160777 0.00272161 1354.91388349 0.00724467 C1355.81443347 0.00485393 1356.71498346 0.00246319 1357.64282283 0 C1363.70725572 0.01843815 1363.70725572 0.01843815 1364.82141142 1.13259384 C1364.92160366 3.91283129 1364.95543655 6.66829188 1364.94791125 9.4490644 C1364.9494378 10.33757214 1364.95096434 11.22607989 1364.95253715 12.14151211 C1364.9564809 15.16404243 1364.95320365 18.18652399 1364.95004587 21.20905468 C1364.95139056 23.38915217 1364.95317333 25.56924944 1364.9553581 27.74934625 C1364.96012259 33.79782356 1364.9585754 39.84628595 1364.95608033 45.89476403 C1364.95462393 51.77803211 1364.95785055 57.66129636 1364.96095087 63.54456352 C1364.96720118 75.73326285 1364.96865454 87.92195864 1364.96753339 100.11065933 C1364.96641081 112.47049389 1364.96743651 124.83032543 1364.97110586 137.19015953 C1364.97133551 137.96949165 1364.97156516 138.74882378 1364.97180178 139.55177203 C1364.97274336 142.72563275 1364.97369905 145.89949346 1364.97467297 149.07335417 C1364.98483021 182.22265683 1364.98787942 215.3719578 1364.98846508 248.52126183 C1364.98852982 252.09200947 1364.98859776 255.6627571 1364.98866849 259.23350474 C1364.98868549 260.11953677 1364.9887025 261.0055688 1364.98872002 261.91845028 C1364.98912806 281.5320192 1364.99131663 301.1455878 1364.99382433 320.75915654 C1364.99485265 328.82925715 1364.99584267 336.89935776 1364.99684058 344.96945837 C1364.99700647 346.3068754 1364.99700647 346.3068754 1364.9971757 347.67131096 C1365.00350193 398.78174929 1365.00762458 449.89218741 1365.00716715 501.00262615 C1365.00715137 502.91634227 1365.00713563 504.83005839 1365.00711994 506.74377451 C1365.00704655 515.38452471 1365.00695838 524.02527491 1365.00686605 532.66602511 C1365.00682493 536.51935309 1365.00678478 540.37268107 1365.00674474 544.22600905 C1365.00672434 546.15467154 1365.00670332 548.08333404 1365.00668168 550.01199653 C1365.00600126 611.01337975 1365.01332078 672.01475717 1365.02722196 733.01613876 C1365.03072279 748.38696515 1365.03419216 763.75779154 1365.03748636 779.12861797 C1365.03779067 780.54815165 1365.03779067 780.54815165 1365.03810113 781.99636278 C1365.0443128 811.14802035 1365.04808105 840.29967744 1365.04934435 869.45133564 C1365.0493843 870.36612465 1365.04942425 871.28091367 1365.04946541 872.22342357 C1365.05031855 892.30194708 1365.05057993 912.38047056 1365.05029503 932.45899408 C1365.05019854 939.64284605 1365.0501465 946.82669802 1365.0501163 954.01054999 C1365.05010839 955.79781179 1365.05009818 957.5850736 1365.05008568 959.37233541 C1365.04990911 987.89030034 1365.05561719 1016.40826033 1365.0642395 1044.92622384 C1365.07287598 1073.63694818 1365.07509227 1102.34766564 1365.06847817 1131.05839073 C1365.06756579 1135.02013617 1365.06672253 1138.98188162 1365.06592016 1142.94362709 C1365.06568003 1144.10861384 1365.06568003 1144.10861384 1365.06543505 1145.29713568 C1365.06307613 1157.62671499 1365.0674532 1169.95628245 1365.07459135 1182.28585953 C1365.08145993 1194.39079229 1365.08126407 1206.49570745 1365.07339921 1218.6006398 C1365.0694846 1225.08385492 1365.06883589 1231.56702772 1365.07685656 1238.05024 C1365.08407408 1243.93532138 1365.08227235 1249.82032477 1365.07293269 1255.70540254 C1365.07119562 1257.83352936 1365.07289017 1259.96166211 1365.0782339 1262.08978294 C1365.08495725 1264.95687751 1365.07959471 1267.82369102 1365.07095908 1270.69077411 C1365.0758587 1271.52816391 1365.08075832 1272.36555372 1365.08580641 1273.22831897 C1365.04972212 1278.90428313 1365.04972212 1278.90428313 1362.82141142 1281.13259384 C1360.53329147 1281.38456685 1360.53329147 1281.38456685 1357.60369174 1281.38740286 C1356.48829882 1281.39333086 1355.37290591 1281.39925887 1354.2237132 1281.40536651 C1352.36654267 1281.39989198 1352.36654267 1281.39989198 1350.47185354 1281.39430687 C1349.16105624 1281.39830293 1347.85025895 1281.40229899 1346.49974053 1281.40641614 C1342.83279723 1281.41731076 1339.16594734 1281.41564012 1335.4989935 1281.41206543 C1331.52050524 1281.41036751 1327.54204352 1281.42020301 1323.56356613 1281.42861947 C1316.58139202 1281.44178097 1309.59924218 1281.44747959 1302.61705618 1281.4483802 C1292.23470612 1281.44975275 1281.85239227 1281.46251521 1271.4700543 1281.47766794 C1254.00774369 1281.50282828 1236.54543612 1281.51866735 1219.08311109 1281.52924987 C1201.78560127 1281.53976278 1184.48810302 1281.5543844 1167.19060163 1281.57453033 C1165.57917972 1281.57640363 1165.57917972 1281.57640363 1163.93520383 1281.57831478 C1158.47978687 1281.58467826 1153.02437 1281.59111551 1147.56895316 1281.59758116 C1108.89757809 1281.6432809 1070.22619926 1281.67971264 1031.55480985 1281.71071884 C993.97895789 1281.74086779 956.40311363 1281.77523309 918.82727079 1281.81521102 C916.46562549 1281.81771772 914.10398019 1281.8202243 911.74233489 1281.82273075 C892.5539191 1281.84311829 873.36550362 1281.86379758 854.17708822 1281.88454762 C765.39187177 1281.98034802 676.60664921 1282.05482336 587.82141142 1282.13259384 C587.32641142 1555.86759384 587.32641142 1555.86759384 586.82141142 1835.13259384 C584.5475213 1836.26953889 583.3157611 1836.25771047 580.79106782 1836.257943 C579.94111331 1836.26044652 579.0911588 1836.26295004 578.2154481 1836.26552942 C577.27442416 1836.26318825 576.33340023 1836.26084709 575.36386041 1836.25843498 C573.86663756 1836.26061514 573.86663756 1836.26061514 572.33916779 1836.26283934 C568.95574693 1836.26652232 565.57237048 1836.26300234 562.18894987 1836.25957748 C559.754304 1836.26072839 557.3196583 1836.26231571 554.88501297 1836.26430472 C549.57165921 1836.2676233 544.25831885 1836.26780048 538.94496565 1836.26525756 C531.04408308 1836.26148649 523.14320912 1836.26340286 515.24232662 1836.26646587 C501.13443329 1836.27174131 487.02654449 1836.27127139 472.91865073 1836.26838696 C460.57350381 1836.2658752 448.22835854 1836.26521293 435.88321142 1836.2664096 C435.06554942 1836.26648599 434.24788743 1836.26656237 433.40544779 1836.26664107 C430.08662275 1836.26695239 426.76779771 1836.26727079 423.44897268 1836.26760084 C392.29257467 1836.27066238 361.13617955 1836.2678823 329.979782 1836.26250394 C302.27391409 1836.25775761 274.56805077 1836.25818304 246.8621829 1836.26296493 C215.76265548 1836.26831455 184.66313061 1836.27044573 153.56360279 1836.26735267 C150.25100041 1836.26703193 146.93839803 1836.26671909 143.62579565 1836.2664096 C142.81009729 1836.26633053 141.99439893 1836.26625145 141.15398244 1836.26616997 C128.8131894 1836.26503047 116.47239821 1836.26636653 104.13160543 1836.26888916 C90.10630485 1836.27174175 76.0810095 1836.27104785 62.05570958 1836.26560841 C54.1974523 1836.26266163 46.33920636 1836.2624955 38.48094936 1836.26625459 C32.62954174 1836.268746 26.77814425 1836.2660643 20.92673778 1836.26128001 C18.54725328 1836.26015465 16.16776729 1836.26074961 13.78828374 1836.2631558 C10.57654056 1836.26615669 7.36486102 1836.26311853 4.15312128 1836.25843498 C2.73807363 1836.26194673 2.73807363 1836.26194673 1.29443915 1836.26552942 C-5.06443824 1836.24674418 -5.06443824 1836.24674418 -6.17858858 1835.13259384 C-6.34033253 1833.11354636 -6.42823688 1831.08861643 -6.49053057 1829.06405887 C-6.51100967 1828.40155635 -6.53148878 1827.73905384 -6.55258846 1827.05647549 C-6.62008427 1824.74507677 -6.67759425 1822.43358075 -6.73315211 1820.121865 C-6.75412719 1819.28630776 -6.77510227 1818.45075052 -6.79671296 1817.58987336 C-7.49295631 1788.83298546 -7.31988004 1760.05721052 -7.30807749 1731.29381955 C-7.30453835 1722.14829352 -7.30699659 1713.00277111 -7.30953319 1703.85724509 C-7.31410406 1686.7742205 -7.31399753 1669.6911989 -7.31125231 1652.60817405 C-7.30849141 1635.32181429 -7.30792841 1618.03545649 -7.30998965 1600.7490966 C-7.31011882 1599.65323428 -7.31024799 1598.55737195 -7.31038108 1597.42830168 C-7.3109144 1592.9643757 -7.31146312 1588.50044972 -7.31203135 1584.03652375 C-7.31730713 1542.56201725 -7.31768556 1501.08751206 -7.3148839 1459.61300537 C-7.31480111 1458.38674914 -7.31471831 1457.16049292 -7.31463301 1455.89707742 C-7.31455008 1454.66885516 -7.31446715 1453.44063291 -7.31438171 1452.1751918 C-7.31185595 1414.71833358 -7.31120834 1377.2614759 -7.31240435 1339.80461761 C-7.31248183 1337.29384337 -7.31255899 1334.78306913 -7.31263582 1332.27229489 C-7.31294629 1322.18229707 -7.31326496 1312.09229925 -7.31359558 1302.00230143 C-7.31451238 1273.80242004 -7.31508313 1245.60253864 -7.31538172 1217.40265724 C-7.31539537 1216.11876705 -7.31540901 1214.83487686 -7.31542307 1213.5120809 C-7.31583208 1172.62954329 -7.31470768 1131.74700585 -7.31253214 1090.8644683 C-7.31247946 1089.87071148 -7.31247946 1089.87071148 -7.31242572 1088.85687875 C-7.31124947 1066.66812925 -7.30999336 1044.47937975 -7.30872909 1022.29063025 C-7.30490561 955.14047866 -7.30281876 887.99032778 -7.30884442 768.00069543 C-7.31010762 745.77075168 -7.31135614 723.54080793 -7.31253214 701.31086418 C-7.31256739 700.64720857 -7.31260263 699.98355297 -7.31263894 699.29978659 C-7.31484339 657.75465479 -7.31582346 616.2095231 -7.31538172 574.66439125 C-7.31536814 573.38196153 -7.31535455 572.09953182 -7.31534056 570.7782406 C-7.31502814 542.63280607 -7.31439462 514.48737155 -7.31347122 486.34193704 C-7.31314207 476.27306447 -7.31282899 466.20419189 -7.31252051 456.13531932 C-7.31244312 453.63045379 -7.31236439 451.12558826 -7.31228431 448.62072273 C-7.3110896 411.14662231 -7.31210923 373.67252251 -7.31463301 336.19842217 C-7.3147158 334.96901972 -7.3147986 333.73961727 -7.3148839 332.4729602 C-7.31496659 331.24582583 -7.31504927 330.01869146 -7.31513446 328.7543712 C-7.31788777 287.43968196 -7.31688787 246.12499429 -7.31160316 204.81030528 C-7.31105077 200.38115376 -7.31051407 195.95200224 -7.30998965 191.52285072 C-7.30985944 190.43583088 -7.30972923 189.34881104 -7.30959508 188.22885121 C-7.30761726 170.96779154 -7.30900166 153.70673383 -7.31175865 136.44567434 C-7.31439394 119.50334504 -7.31349374 102.56101905 -7.30874456 85.61869017 C-7.30606201 75.66757042 -7.30615571 65.71645973 -7.31022616 55.76534039 C-7.31265217 49.17476785 -7.31151644 42.58420243 -7.30735931 35.99363076 C-7.30509852 32.2461717 -7.30446216 28.49873082 -7.30817582 24.75127251 C-7.3121157 20.74133611 -7.3084619 16.73144457 -7.30393775 12.72150883 C-7.30632849 11.54526534 -7.30871923 10.36902185 -7.31118242 9.15713461 C-7.30872392 8.10237817 -7.30626542 7.04762172 -7.30373242 5.96090296 C-7.30370445 5.04541946 -7.30367648 4.12993596 -7.30364767 3.18671053 C-7.0327038 -1.26358845 -3.69024189 0.01121972 0 0 Z M-5.17858858 2.13259384 C-5.20729929 312.75565811 -5.20729929 312.75565811 -5.22675355 623.37872263 C-5.22686292 625.79036164 -5.22697234 628.20200064 -5.22708181 630.61363965 C-5.22713668 631.82285828 -5.22719156 633.03207691 -5.2272481 634.27793852 C-5.22915857 676.31579265 -5.23112808 718.35364677 -5.23321627 760.39150089 C-5.23341888 764.47280269 -5.23362007 768.55410448 -5.23382002 772.63540628 C-5.23691084 835.72130163 -5.24081083 898.80719678 -5.24725313 961.89309188 C-5.24732157 962.56378495 -5.24739 963.23447802 -5.24746051 963.92549513 C-5.24973739 986.2276178 -5.25209185 1008.52974046 -5.25445702 1030.83186312 C-5.25659387 1050.98322173 -5.25870284 1071.13458033 -5.26071997 1091.28593895 C-5.26078625 1091.94798213 -5.26085253 1092.61002532 -5.26092082 1093.29213042 C-5.26506758 1134.78428728 -5.26800449 1176.27644411 -5.26972838 1217.76860115 C-5.26978191 1219.05095178 -5.26983545 1220.33330242 -5.2698906 1221.65451217 C-5.27105657 1249.8103339 -5.27195133 1277.96615562 -5.27258957 1306.12197736 C-5.27285118 1317.45223102 -5.2731518 1328.78248468 -5.27346583 1340.11273834 C-5.27349925 1341.3527581 -5.27353268 1342.59277787 -5.27356712 1343.87037399 C-5.27466219 1383.7739863 -5.27892857 1423.67759749 -5.28487079 1463.58120934 C-5.29084578 1503.80281666 -5.29368502 1544.02442289 -5.29221257 1584.24603066 C-5.29200951 1589.81412455 -5.29184212 1595.38221845 -5.29169627 1600.95031234 C-5.29166638 1602.04174274 -5.2916365 1603.13317314 -5.29160572 1604.25767719 C-5.29122622 1621.48562004 -5.29419939 1638.71356059 -5.29859845 1655.94150281 C-5.30286267 1672.91475555 -5.30351425 1689.88800533 -5.3004204 1706.86125836 C-5.29886497 1715.92753386 -5.29884893 1724.99380234 -5.30347177 1734.06007699 C-5.39374926 1776.83989625 -5.39374926 1776.83989625 -4.73357268 1819.61239692 C-4.7141383 1820.39693004 -4.69470392 1821.18146315 -4.67468063 1821.98977 C-4.6201408 1824.08594944 -4.55782086 1826.1816709 -4.49076714 1828.27748307 C-4.45487481 1829.40166875 -4.41898249 1830.52585443 -4.38200251 1831.68410634 C-4.44862538 1834.0779358 -4.44862538 1834.0779358 -3.17858858 1835.13259384 C-0.07452028 1835.23174885 3.00733491 1835.26432595 6.11185579 1835.25564167 C7.10408499 1835.25679551 8.09631418 1835.25794935 9.11861093 1835.25913816 C12.48790891 1835.26181313 15.85716036 1835.25727548 19.22645597 1835.25284835 C21.64857696 1835.25328388 24.07069789 1835.25415843 26.49281858 1835.25543752 C31.78187914 1835.25721519 37.07092541 1835.25585775 42.35998373 1835.25179931 C50.22470283 1835.24578119 58.08941481 1835.24546193 65.95413579 1835.2463413 C79.18180873 1835.24765737 92.40947669 1835.24430559 105.63714819 1835.23832389 C118.7404746 1835.23241357 131.84379894 1835.2285593 144.94712667 1835.22747108 C146.1677019 1835.22736797 146.1677019 1835.22736797 147.41293522 1835.22726278 C151.54513262 1835.22692446 155.67733003 1835.22662307 159.80952743 1835.2263359 C189.10312234 1835.22423364 218.39671453 1835.21749112 247.6903079 1835.20803329 C276.15450046 1835.19885383 304.61869228 1835.19178468 333.08288603 1835.18752548 C334.87178125 1835.18725484 336.66067648 1835.18698413 338.44957171 1835.18671336 C352.98431963 1835.1845247 367.51906757 1835.18248208 382.05381552 1835.18047488 C449.30968339 1835.1710817 516.56554418 1835.15101281 583.82141142 1835.13259384 C584.31641142 1560.40759384 584.31641142 1560.40759384 584.82141142 1280.13259384 C970.42641142 1279.63759384 970.42641142 1279.63759384 1363.82141142 1279.13259384 C1363.82141142 857.72259384 1363.82141142 436.31259384 1363.82141142 2.13259384 C912.05141142 2.13259384 460.28141142 2.13259384 -5.17858858 2.13259384 Z " fill="#FFDCAE" transform="translate(609.1785885840654,475.867406162899)"/>
<path d="M0 0 C339.7246875 -0.061875 339.7246875 -0.061875 686.3125 -0.125 C757.96544189 -0.14320801 829.61838379 -0.16141602 903.44262695 -0.18017578 C990.58239746 -0.18920898 990.58239746 -0.18920898 1031.30729675 -0.19088745 C1060.84561058 -0.19282121 1090.38391504 -0.20078328 1119.92222632 -0.21225091 C1151.03925539 -0.22429623 1182.15627898 -0.22992854 1213.27331043 -0.22712447 C1217.60525064 -0.22673595 1221.93719085 -0.22641882 1226.26913106 -0.22614455 C1227.54269833 -0.22606001 1227.54269833 -0.22606001 1228.84199422 -0.22597376 C1242.20217598 -0.22526952 1255.5623459 -0.23120663 1268.92252442 -0.24003955 C1281.91030949 -0.24849143 1294.89807905 -0.24992029 1307.88586556 -0.24367068 C1315.51129533 -0.24021803 1323.13667617 -0.24234211 1330.76210031 -0.25243275 C1336.41508397 -0.25930986 1342.06802235 -0.25589247 1347.72100333 -0.24827967 C1350.00726589 -0.24683954 1352.29353353 -0.24882506 1354.57978957 -0.25447057 C1357.66117847 -0.26160384 1360.74230803 -0.25662551 1363.82368833 -0.24839699 C1364.72131055 -0.25341475 1365.61893276 -0.2584325 1366.54375565 -0.26360231 C1372.65753472 -0.22831019 1372.65753472 -0.22831019 1376 2 C1376.29912867 4.88598957 1376.39928938 7.55803959 1376.37374616 10.44708109 C1376.37968389 11.78280147 1376.37968389 11.78280147 1376.38574158 13.14550611 C1376.39544737 16.1688685 1376.38352797 19.1917754 1376.3719368 22.21512604 C1376.37445631 24.39809601 1376.37829202 26.58106479 1376.38333416 28.7640304 C1376.39343594 34.81586383 1376.38463811 40.86755023 1376.37299994 46.91937559 C1376.36460688 52.80728266 1376.37030557 58.69516466 1376.37564412 64.58307282 C1376.38619664 76.78027853 1376.38246238 88.9774431 1376.37107468 101.17464638 C1376.35958338 113.54212845 1376.35459336 125.90958748 1376.35761642 138.27707481 C1376.35789626 139.44703095 1376.35789626 139.44703095 1376.35818175 140.64062256 C1376.35916208 144.61741947 1376.36024691 148.59421633 1376.36136696 152.5710132 C1376.36925422 181.38598765 1376.36245045 210.20094391 1376.34775543 239.01591492 C1376.33322736 267.5614995 1376.32444918 296.10707578 1376.32357025 324.65266418 C1376.32350862 326.44328015 1376.32344691 328.23389611 1376.32338512 330.02451207 C1376.32314941 337.21973257 1376.32296359 344.41495306 1376.32283698 351.61017356 C1376.32247517 371.72546989 1376.32112693 391.84076609 1376.31907272 411.95606232 C1376.31897973 412.87216757 1376.31888675 413.78827281 1376.31879094 414.73213883 C1376.31417042 459.31768514 1376.29800538 503.90322643 1376.28125 548.48876953 C1376.25794786 610.49625743 1376.2437821 672.50373823 1376.24023438 734.51123047 C1376.24012199 736.44059242 1376.24000934 738.36995437 1376.23989645 740.29931632 C1376.23950299 747.03896831 1376.23911582 753.77862029 1376.23872932 760.51827228 C1376.23839923 766.27390562 1376.23806735 772.02953896 1376.23773346 777.78517231 C1376.237568 780.65489423 1376.23740586 783.52461615 1376.23724384 786.39433808 C1376.2338161 846.39060254 1376.22265898 906.38686575 1376.21000063 966.38312889 C1376.20605548 985.12067456 1376.20255699 1003.85822013 1376.20018864 1022.59576607 C1376.19539265 1060.13824199 1376.18834513 1097.68071367 1376.17204097 1135.22318661 C1376.17067808 1138.38976613 1376.16932812 1141.55634566 1376.16798782 1144.72292519 C1376.16749153 1145.88867307 1376.16749153 1145.88867307 1376.16698522 1147.07797141 C1376.16181648 1159.41558906 1376.15997926 1171.75320487 1376.15949048 1184.09082349 C1376.15893536 1196.20361496 1376.15481013 1208.31640079 1376.14680431 1220.42918968 C1376.14266023 1226.91658603 1376.14013329 1233.40397246 1376.14191952 1239.89137012 C1376.1435035 1245.78022524 1376.14057175 1251.66905927 1376.13386396 1257.55791063 C1376.1322563 1259.68740743 1376.1323625 1261.81690631 1376.13429123 1263.94640284 C1376.13665002 1266.81526747 1376.13296881 1269.68405982 1376.1276505 1272.55291891 C1376.13088221 1273.80981529 1376.13088221 1273.80981529 1376.1341792 1275.09210352 C1376.11415705 1280.77168589 1376.11415705 1280.77168589 1375 1283 C990.88 1283.495 990.88 1283.495 599 1284 C598.505 1557.735 598.505 1557.735 598 1837 C595.72024586 1838.13987707 594.47728026 1838.12511745 591.94515896 1838.12534916 C591.089727 1838.12785268 590.23429505 1838.1303562 589.35294092 1838.13293558 C588.40578545 1838.13059442 587.45862998 1838.12825325 586.48277283 1838.12584114 C585.47817036 1838.12729458 584.4735679 1838.12874802 583.43852293 1838.13024551 C580.03313787 1838.13392856 576.62779693 1838.13040846 573.22241211 1838.12698364 C570.77197973 1838.12813455 568.32154753 1838.12972187 565.87111568 1838.13171089 C560.52324278 1838.13502949 555.17538319 1838.13520662 549.82751083 1838.13266373 C541.87524537 1838.12889266 533.92298846 1838.13080902 525.97072306 1838.13387203 C511.77079736 1838.13914756 497.57087615 1838.1386775 483.37095001 1838.13579312 C470.94463636 1838.13328129 458.51832435 1838.13261912 446.0920105 1838.13381577 C445.26894824 1838.13389215 444.44588598 1838.13396854 443.59788244 1838.13404724 C440.25712085 1838.13435855 436.91635926 1838.13467695 433.57559767 1838.135007 C402.2125956 1838.13806859 370.8495964 1838.13528843 339.48659478 1838.1299101 C311.59946009 1838.12516421 283.71232996 1838.12558883 255.82519531 1838.13037109 C224.52093339 1838.13572136 193.216674 1838.1378515 161.91241169 1838.13475883 C158.57760429 1838.13443809 155.2427969 1838.13412526 151.9079895 1838.13381577 C151.08682596 1838.13373669 150.26566242 1838.13365761 149.41961514 1838.13357614 C136.99864532 1838.13243686 124.57767733 1838.1337723 112.15670776 1838.13629532 C98.03884335 1838.13914866 83.92098414 1838.13845242 69.80312037 1838.13301457 C61.89397234 1838.13006898 53.98483556 1838.12989997 46.07568781 1838.13366075 C40.18462029 1838.1361539 34.29356283 1838.13346796 28.40249646 1838.12868617 C26.00818942 1838.12756163 23.6138809 1838.12815399 21.21957481 1838.13056196 C17.98543679 1838.13356708 14.75136179 1838.13052023 11.51722717 1838.12584114 C10.09649397 1838.12935289 10.09649397 1838.12935289 8.64705908 1838.13293558 C7.79162713 1838.13043207 6.93619518 1838.12792855 6.05484104 1838.12534916 C5.31438056 1838.1252814 4.57392007 1838.12521365 3.81102139 1838.12514383 C2 1838 2 1838 0 1837 C0 1230.79 0 624.58 0 0 Z M2 2 C1.90216227 3.60700135 1.87490535 5.21833225 1.87485617 6.82830913 C1.87239767 7.88306557 1.86993916 8.93782201 1.86740616 10.02454077 C1.86979691 11.20078427 1.87218765 12.37702776 1.87465084 13.58891499 C1.87324852 14.83184512 1.8718462 16.07477524 1.87040139 17.35536992 C1.86661282 20.84261837 1.86913554 24.32983929 1.87259134 27.81708706 C1.875258 31.61109562 1.87214764 35.40509999 1.86975449 39.19910812 C1.86634726 45.88684856 1.86670245 52.57458087 1.86943804 59.26232149 C1.87351512 69.27470109 1.87186201 79.28707404 1.8690554 89.29945378 C1.86444346 106.36070281 1.8646112 123.42194887 1.86733627 140.48319817 C1.87008305 157.78555169 1.87067147 175.08790325 1.86859894 192.39025688 C1.86846977 193.48121064 1.86834059 194.57216441 1.86820751 195.69617737 C1.86767426 200.13919986 1.86712555 204.58222235 1.86655723 209.02524484 C1.86126045 250.46361905 1.86091263 291.90199196 1.86370468 333.34036636 C1.86378748 334.56976881 1.86387027 335.79917126 1.86395558 337.06582833 C1.86403851 338.29720191 1.86412144 339.52857549 1.86420688 340.79726342 C1.86672786 378.27916815 1.8673825 415.76107234 1.86618423 453.24297714 C1.86610675 455.75081943 1.8660296 458.25866172 1.86595276 460.76650401 C1.8656423 470.84434482 1.86532364 480.92218563 1.864993 491.00002644 C1.8640758 519.17728342 1.86350533 547.35454041 1.86320686 575.53179741 C1.86319322 576.81516906 1.86317957 578.09854071 1.86316551 579.42080241 C1.86275599 620.33995846 1.86388335 661.25911435 1.86605644 702.17827034 C1.86609156 702.84210938 1.86612668 703.50594843 1.86616286 704.18990381 C1.86733923 726.4254773 1.86859529 748.66105079 1.86985949 770.89662428 C1.87367667 838.08112048 1.87577726 905.26561598 1.86974416 1025.1821765 C1.86848089 1047.36540915 1.86723234 1069.54864181 1.86605644 1091.73187447 C1.8660212 1092.39419077 1.86598595 1093.05650708 1.86594964 1093.73889357 C1.86374259 1135.24928354 1.86276567 1176.75967338 1.86320686 1218.2700634 C1.86322045 1219.55300932 1.86323403 1220.83595524 1.86324803 1222.1577783 C1.86356057 1250.32689112 1.86419434 1278.49600391 1.86511737 1306.66511671 C1.8654465 1316.74603163 1.86575958 1326.82694655 1.86606808 1336.90786146 C1.86614547 1339.41571881 1.8662242 1341.92357615 1.86630427 1344.4314335 C1.86749659 1381.87578376 1.86648382 1419.3201334 1.86395558 1456.76448358 C1.86387278 1457.9907398 1.86378999 1459.21699603 1.86370468 1460.48041153 C1.863622 1461.70440397 1.86353932 1462.92839641 1.86345413 1464.18947953 C1.86069084 1505.54889853 1.86172058 1546.90831595 1.86698543 1588.26773472 C1.86753774 1592.71732407 1.86807445 1597.16691341 1.86859894 1601.61650276 C1.86872914 1602.70847046 1.86885935 1603.80043816 1.8689935 1604.92549579 C1.87095962 1622.15915021 1.86959935 1639.39280267 1.86682993 1656.62645691 C1.864173 1673.60696465 1.86513431 1690.5874691 1.86984402 1707.56797642 C1.87226411 1716.63742794 1.87315953 1725.70687266 1.86943804 1734.77632393 C1.7912807 1777.88628058 1.7912807 1777.88628058 2.44543648 1820.98927116 C2.46485975 1821.79745736 2.48428303 1822.60564356 2.50429489 1823.43832025 C2.55885823 1825.60296393 2.62115594 1827.76717161 2.68805802 1829.93146503 C2.72390751 1831.09658105 2.75975701 1832.26169707 2.79669286 1833.46211963 C2.71877134 1835.93489934 2.71877134 1835.93489934 4 1837 C7.11776992 1837.10007949 10.21345623 1837.13357977 13.33170986 1837.12584114 C14.32840499 1837.12729458 15.32510011 1837.12874802 16.35199812 1837.13024551 C19.73650621 1837.13393368 23.12097005 1837.13040614 26.50547791 1837.12698364 C28.93854803 1837.12813435 31.37161798 1837.12972153 33.80468756 1837.13171089 C39.1177237 1837.13503133 44.43074645 1837.13520528 49.74378204 1837.13266373 C57.64426185 1837.12889464 65.54473303 1837.13080799 73.44521277 1837.13387203 C87.55246573 1837.1391492 101.65971417 1837.13867683 115.76696756 1837.13579312 C128.11277361 1837.13328174 140.45857799 1837.13261891 152.80438423 1837.13381577 C153.62196984 1837.13389215 154.43955545 1837.13396854 155.28191639 1837.13404724 C158.60042151 1837.13435855 161.91892662 1837.13467695 165.23743174 1837.135007 C196.39552871 1837.13806901 227.55362279 1837.13528783 258.71171932 1837.1299101 C286.41743356 1837.12516461 314.12314322 1837.12558841 341.82885742 1837.13037109 C372.92692226 1837.13572139 404.02498456 1837.13785144 435.1230498 1837.13475883 C438.43596653 1837.13443809 441.74888327 1837.13412525 445.0618 1837.13381577 C445.87757744 1837.13373669 446.69335488 1837.13365761 447.53385284 1837.13357614 C459.87373948 1837.13243683 472.21362428 1837.13377237 484.55351067 1837.13629532 C498.57990483 1837.13914872 512.60629376 1837.13845232 526.63268726 1837.13301457 C534.49072915 1837.13006898 542.3487597 1837.12989997 550.2068013 1837.13366075 C556.05986711 1837.13615393 561.9129228 1837.13346791 567.76598746 1837.12868617 C570.1448467 1837.12756164 572.52370743 1837.12815397 574.90256571 1837.13056196 C578.11588242 1837.13356713 581.3291357 1837.13052016 584.542449 1837.12584114 C585.48347293 1837.12818231 586.42449687 1837.13052347 587.39403668 1837.13293558 C588.24399119 1837.13043207 589.0939457 1837.12792855 589.96965641 1837.12534916 C591.07319568 1837.12524753 591.07319568 1837.12524753 592.19902867 1837.12514383 C594.10266119 1837.10872623 594.10266119 1837.10872623 596 1836 C596.495 1562.265 596.495 1562.265 597 1283 C652.92210937 1282.95101563 708.84421875 1282.90203125 766.4609375 1282.8515625 C799.66392482 1282.81831049 832.86691089 1282.78492383 866.06989527 1282.74901867 C885.53531357 1282.72797935 905.00073196 1282.70703325 924.46615067 1282.68637431 C926.82078693 1282.68387505 929.17542318 1282.68137286 931.53005943 1282.6788677 C969.10018601 1282.6389202 1006.67031494 1282.60543632 1044.24045057 1282.57531309 C1082.83785841 1282.54433207 1121.43525453 1282.50683875 1160.03264782 1282.46109388 C1165.47816188 1282.45464302 1170.92367602 1282.44826698 1176.36919022 1282.44193649 C1177.97690038 1282.44006404 1177.97690038 1282.44006404 1179.61708954 1282.43815375 C1196.90414988 1282.41821274 1214.19120892 1282.40518304 1231.4782773 1282.39470672 C1248.8370582 1282.38404058 1266.19581963 1282.36616759 1283.55458544 1282.34083296 C1293.88102778 1282.3259837 1304.2074403 1282.31676514 1314.53389342 1282.31543317 C1321.4197746 1282.31400213 1328.30562207 1282.30541111 1335.19148794 1282.29084408 C1339.12275947 1282.28273703 1343.05396475 1282.27788883 1346.98524432 1282.28172119 C1351.20704401 1282.28576476 1355.42866025 1282.27458344 1359.65044212 1282.26171303 C1361.50761266 1282.26718755 1361.50761266 1282.26718755 1363.40230179 1282.27277267 C1364.51769471 1282.26684467 1365.63308762 1282.26091666 1366.78228033 1282.25480902 C1367.74904824 1282.25387314 1368.71581614 1282.25293725 1369.71188005 1282.25197301 C1372.19728426 1282.21968744 1372.19728426 1282.21968744 1374 1280 C1374.19689682 1277.15401104 1374.26620688 1274.40539292 1374.24954766 1271.55818027 C1374.25356827 1270.22331518 1374.25356827 1270.22331518 1374.25767009 1268.86148312 C1374.26428091 1265.8401526 1374.25647555 1262.81902398 1374.24888897 1259.79769802 C1374.25066967 1257.61613184 1374.25332768 1255.43456623 1374.25678983 1253.25300208 C1374.26380305 1247.20509955 1374.25821587 1241.15726185 1374.25073375 1235.10936225 C1374.24540648 1229.22526624 1374.24947132 1223.34118179 1374.25329436 1217.45708571 C1374.26087551 1205.26780796 1374.25892612 1193.0785481 1374.2518692 1180.88927078 C1374.24474987 1168.52985543 1374.24196118 1156.17045051 1374.24450874 1143.81103325 C1374.24466661 1143.03157195 1374.24482447 1142.25211065 1374.24498712 1141.44902932 C1374.24581108 1137.47483334 1374.24670396 1133.50063737 1374.2476195 1129.52644141 C1374.25409768 1100.73052996 1374.25073172 1071.93462625 1374.24202538 1043.13871574 C1374.23341604 1014.6126695 1374.22849343 986.0866269 1374.22869301 957.5605793 C1374.22870093 955.7712171 1374.22870865 953.98185489 1374.22871618 952.19249269 C1374.22875355 945.0023279 1374.22881997 937.81216312 1374.22892199 930.62199833 C1374.22919965 910.5209128 1374.22881079 890.41982731 1374.22793293 870.3187418 C1374.22787342 868.94555816 1374.22787342 868.94555816 1374.22781271 867.54463344 C1374.22650421 838.36176307 1374.22233099 809.17889385 1374.21607494 779.99602413 C1374.215872 779.04910374 1374.21566907 778.10218335 1374.21545998 777.1265684 C1374.212151 761.7478645 1374.20865581 746.36916065 1374.20515126 730.99045679 C1374.19126141 669.98899833 1374.18461814 608.98754403 1374.18530273 547.98608398 C1374.18532312 546.05794526 1374.18534334 544.12980653 1374.18536337 542.2016678 C1374.18540355 538.35000162 1374.18544433 534.49833543 1374.18548548 530.64666925 C1374.1855769 522.01101314 1374.18566125 513.37535703 1374.18573207 504.73970092 C1374.18574784 502.82715862 1374.18576428 500.91461632 1374.1857814 499.00207402 C1374.18622637 447.94700386 1374.18176169 396.89193427 1374.17542917 345.83686453 C1374.17531899 344.94591435 1374.17520882 344.05496416 1374.17509531 343.13701548 C1374.17359984 331.04357401 1374.17359984 331.04357401 1374.17207072 318.95013254 C1374.16957285 299.33372532 1374.16763354 279.71731829 1374.16725707 260.1009109 C1374.16723954 259.21586405 1374.16722201 258.33081719 1374.16720395 257.41895074 C1374.16713474 253.85174052 1374.16706949 250.28453031 1374.16700647 246.7173201 C1374.1664212 213.66137239 1374.16267121 180.60542808 1374.15252777 147.5494818 C1374.15157013 144.38550977 1374.1506268 141.22153773 1374.14969444 138.05756569 C1374.14946391 137.28103806 1374.14923338 136.50451043 1374.14899586 135.70445166 C1374.14542205 123.37415521 1374.1451961 111.04386106 1374.14633027 98.71356424 C1374.1473706 86.60963994 1374.14485857 74.50572078 1374.13848015 62.40179806 C1374.1352095 55.91845944 1374.13356629 49.435131 1374.13624074 42.95179188 C1374.13863289 37.06779021 1374.13651925 31.18380903 1374.13062263 25.29981 C1374.12930954 23.17094824 1374.12971511 21.04208465 1374.13193924 18.91322366 C1374.13469475 16.04761385 1374.13142324 13.18207585 1374.12649983 10.31647056 C1374.12877244 9.47669002 1374.13104505 8.63690947 1374.13338652 7.77168103 C1374.47304026 4.08425907 1374.47304026 4.08425907 1373 1 C1370.02327521 0.90008164 1367.06969592 0.86674703 1364.09247208 0.87465084 C1363.13995279 0.87324852 1362.1874335 0.8718462 1361.20604999 0.87040139 C1357.96533358 0.86687939 1354.72466358 0.87057958 1351.48394775 0.87415886 C1349.14664834 0.87311719 1346.80934908 0.87163705 1344.47205019 0.86975449 C1339.34892533 0.86665149 1334.22581011 0.86670205 1329.10268545 0.86943804 C1321.43316255 0.8735155 1313.76364832 0.87186187 1306.09412523 0.8690554 C1293.02606176 0.86444398 1279.95800218 0.86461093 1266.88993835 0.86733627 C1253.63836081 0.87008309 1240.38678583 0.87067144 1227.13520813 0.86859894 C1225.88188739 0.86840518 1225.88188739 0.86840518 1224.60324703 0.86820751 C1221.20045281 0.86767426 1217.7976586 0.86712556 1214.39486439 0.86655723 C1182.66538274 0.86126153 1150.9359028 0.860912 1119.2064209 0.86370468 C1117.79472282 0.86382887 1117.79472282 0.86382887 1116.3545056 0.86395558 C1115.4118791 0.86403851 1114.4692526 0.86412144 1113.49806166 0.86420688 C1084.81694487 0.86672689 1056.13582879 0.86738293 1027.45471191 0.86618423 C1025.53644805 0.86610676 1023.61818419 0.8660296 1021.69992033 0.86595276 C1013.99182507 0.86564232 1006.28372981 0.86532365 998.57563455 0.864993 C977.02635485 0.86407585 955.47707514 0.86350535 933.92779541 0.86320686 C932.94637249 0.86319322 931.96494956 0.86317957 930.95378655 0.86316551 C899.66659896 0.86275604 868.37941163 0.86388411 837.09222412 0.86605644 C835.56935948 0.86616182 835.56935948 0.86616182 834.01572989 0.86626932 C817.52731486 0.86741436 801.03889984 0.86863378 784.55048481 0.86985949 C719.14954127 0.87471608 653.74859978 0.87449067 588.34765625 0.86962891 C571.86769613 0.86840778 555.38773601 0.86719676 538.90777588 0.86605644 C537.38581961 0.86595077 537.38581961 0.86595077 535.83311676 0.86584296 C504.57947934 0.8636878 473.32584208 0.86277231 442.07220459 0.86320686 C441.09149614 0.86322045 440.11078769 0.86323403 439.10036081 0.86324803 C417.57529617 0.86356046 396.05023155 0.86419402 374.52516693 0.86511737 C366.82383185 0.86544653 359.12249676 0.86575961 351.42116168 0.86606808 C349.50515041 0.86614547 347.58913913 0.8662242 345.67312786 0.86630427 C316.99724974 0.86749943 288.32137242 0.8664784 259.6454944 0.86395558 C258.70436235 0.86387278 257.7632303 0.86378999 256.7935791 0.86370468 C255.85417199 0.863622 254.91476488 0.86353932 253.94689089 0.86345413 C222.31171788 0.86070019 190.67654692 0.86170177 159.04137421 0.86698543 C155.6491801 0.86753782 152.25698598 0.86807452 148.86479187 0.86859894 C148.03225135 0.86872914 147.19971084 0.86885935 146.34194182 0.8689935 C133.12200888 0.87097128 119.9020785 0.86958694 106.68214579 0.86682993 C93.70500343 0.86419437 80.7278654 0.86509536 67.75072359 0.86984402 C60.12822133 0.8725264 52.50573091 0.87243319 44.8832292 0.86836242 C39.24610694 0.86565331 33.60899673 0.86807833 27.97187608 0.8726187 C25.68934926 0.87363595 23.40682095 0.87293374 21.12429529 0.87041276 C18.05201637 0.86725711 14.97980364 0.87012777 11.90752792 0.87465084 C11.00697794 0.87226009 10.10642796 0.86986935 9.17858858 0.86740616 C5.27634946 0.49167034 5.27634946 0.49167034 2 2 Z " fill="#FFB14A" transform="translate(600,475)"/>
<path d="M0 0 C0.91798142 0.00234117 1.83596284 0.00468233 2.78176188 0.00709444 C3.75174263 0.005641 4.72172337 0.00418756 5.72109747 0.00269008 C9.01472082 -0.00099795 12.30829869 0.00252938 15.6019218 0.00595194 C17.96970781 0.00480123 20.33749365 0.00321404 22.70527911 0.0012247 C27.875646 -0.00209569 33.04600342 -0.00226974 38.21637034 0.00027186 C45.90465225 0.00404099 53.5929253 0.00212758 61.28120714 -0.00093645 C75.00928905 -0.0062135 88.73736632 -0.00574131 102.46544868 -0.00285754 C114.47881538 -0.00034622 126.49218038 0.0003167 138.50554729 -0.00088018 C139.69887107 -0.00099476 139.69887107 -0.00099476 140.9163024 -0.00111165 C144.1453476 -0.00142297 147.3743928 -0.00174137 150.603438 -0.00207142 C180.92088284 -0.00513337 211.23832473 -0.00235228 241.55576912 0.00302548 C268.51630467 0.00777141 295.4768355 0.0073468 322.43737102 0.00256449 C352.69784882 -0.00278517 382.958324 -0.00491625 413.21880221 -0.00182325 C416.44211014 -0.00150251 419.66541807 -0.00118967 422.888726 -0.00088018 C423.68244045 -0.0008011 424.4761549 -0.00072203 425.29392131 -0.00064055 C437.3024523 0.00049898 449.3109814 -0.00083718 461.31951213 -0.00335974 C474.96787965 -0.00621239 488.61624178 -0.00551831 502.26460862 -0.00007899 C509.91179131 0.00286777 517.55896236 0.00303396 525.20614476 -0.00072517 C530.90047047 -0.00321663 536.59478399 -0.0005348 542.2891078 0.00424941 C544.60469259 0.00537475 546.92027892 0.00477986 549.23586273 0.00237362 C552.36143527 -0.0006274 555.4869424 0.00241102 558.6125114 0.00709444 C559.53049282 0.00475328 560.44847424 0.00241211 561.39427328 0 C567.58298631 0.01878525 567.58298631 0.01878525 568.69713664 1.13293558 C568.79630214 3.33927045 568.8226945 5.54886501 568.82297778 7.75742728 C568.82443113 8.46441968 568.82588449 9.17141208 568.82738188 9.89982849 C568.83107698 12.31024915 568.82753468 14.72060786 568.82412028 17.13102823 C568.82527421 18.87764582 568.8268641 20.62426317 568.82885182 22.37088001 C568.83308009 27.24533953 568.83093884 32.11977974 568.82786763 36.99423939 C568.82558775 42.33316937 568.82906854 47.67209613 568.83177257 53.01102549 C568.83626332 63.80486327 568.83510658 74.59869427 568.83230333 85.39253234 C568.83005009 94.62151996 568.8300339 103.85050591 568.83145595 113.07949358 C568.83155672 113.75308919 568.83165749 114.42668479 568.83176132 115.12069238 C568.83217417 117.87474793 568.83259299 120.62880347 568.83302191 123.38285902 C568.83744418 152.18728347 568.83415004 180.99170436 568.82820525 209.79612832 C568.82736286 213.88206073 568.82653031 217.96799315 568.8257072 222.05392557 C568.82546083 223.2745204 568.82546083 223.2745204 568.82520948 224.51977371 C568.82177418 241.77212752 568.82059234 259.02448124 568.81971326 276.27683534 C568.81459233 375.63701703 568.78364594 474.99718782 568.47631798 936.27143465 C568.47192405 941.89168389 568.46753951 947.51193314 568.46316034 953.13218239 C568.46192514 954.71689678 568.46068991 956.30161118 568.45945466 957.88632557 C568.45723081 960.73931364 568.45500859 963.5923017 568.45278762 966.44528976 C568.22597312 1257.3411922 567.95525188 1548.23706069 567.69713664 1839.13293558 C124.17713664 1839.13293558 -319.34286336 1839.13293558 -776.30286336 1839.13293558 C-776.30286336 1365.13293558 -776.30286336 1365.13293558 -775.30286336 1364.13293558 C-773.62231131 1364.0352605 -771.9376145 1364.00846305 -770.25422639 1364.00873709 C-769.15111468 1364.00648979 -768.04800298 1364.0042425 -766.91146365 1364.00192711 C-765.68195336 1364.00455412 -764.45244308 1364.00718113 -763.18567491 1364.00988775 C-761.88785007 1364.00873391 -760.59002524 1364.00758007 -759.25287238 1364.00639126 C-755.61766705 1364.00330199 -751.98248937 1364.00651401 -748.34728609 1364.01066939 C-744.40493313 1364.01408645 -740.46258314 1364.01173608 -736.52022964 1364.0100919 C-729.5999304 1364.00801212 -722.67963973 1364.00967218 -715.75934148 1364.01373011 C-705.46899563 1364.01974747 -695.17865523 1364.02006756 -684.88830794 1364.01918812 C-667.58109184 1364.01787196 -650.27387955 1364.02122418 -632.96666455 1364.02720553 C-615.82184447 1364.03311561 -598.67702596 1364.03697007 -581.53220487 1364.03805834 C-579.93523649 1364.03816145 -579.93523649 1364.03816145 -578.30600612 1364.03826664 C-572.89956058 1364.03860496 -567.49311505 1364.03890635 -562.08666951 1364.03919352 C-523.75858656 1364.04129585 -485.43050569 1364.04803856 -447.10242391 1364.05749613 C-409.85925996 1364.06667541 -372.61609657 1364.07376155 -335.37293172 1364.07800394 C-334.2256283 1364.07813547 -333.07832489 1364.078267 -331.89625471 1364.07840251 C-320.37492319 1364.07972099 -308.85359167 1364.08099681 -297.33226014 1364.08224137 C-273.86043014 1364.08477781 -250.38860017 1364.08759907 -226.91677022 1364.09059244 C-225.29785292 1364.09079838 -225.29785292 1364.09079838 -223.64623021 1364.09100847 C-151.53177373 1364.10021447 -79.4173184 1364.11606029 -7.30286336 1364.13293558 C-7.30301934 1362.94983765 -7.30317532 1361.76673971 -7.30333603 1360.54779032 C-7.30866876 1320.04174827 -7.31377937 1279.5357062 -7.3187325 1239.0296641 C-7.3188323 1238.21369222 -7.3189321 1237.39772034 -7.31903492 1236.55702204 C-7.32971884 1149.15222721 -7.33894284 1061.74743238 -7.3452065 974.34263712 C-7.34534595 972.40189549 -7.3454854 970.46115386 -7.34562485 968.52041223 C-7.34854732 927.78680253 -7.35126406 887.05319282 -7.35374304 846.31958308 C-7.35498847 825.85878383 -7.35627344 805.39798458 -7.3575958 784.93718533 C-7.35779505 781.85068501 -7.35799317 778.76418469 -7.35819124 775.67768438 C-7.36125246 728.13066343 -7.3651636 680.58364274 -7.37152791 633.03662211 C-7.37166481 632.0137457 -7.37180171 630.99086929 -7.37194276 629.93699663 C-7.37415522 613.44442665 -7.37643879 596.95185668 -7.3787318 580.45928672 C-7.38533253 532.97538832 -7.39141044 485.49149012 -7.39400315 438.00759131 C-7.39408346 436.54394526 -7.39408346 436.54394526 -7.39416538 435.0507306 C-7.39533094 413.63413768 -7.39622589 392.21754475 -7.39686434 370.80095181 C-7.39712598 362.18459725 -7.3974266 353.5682427 -7.3977406 344.95188814 C-7.39777403 344.00884561 -7.39780746 343.06580308 -7.3978419 342.09418351 C-7.39893965 311.67221104 -7.40321515 281.25024004 -7.40914557 250.82826816 C-7.41510143 220.20150452 -7.41796506 189.5747423 -7.41648735 158.94797807 C-7.41628425 154.72238896 -7.41611687 150.49679984 -7.41597104 146.27121073 C-7.41594116 145.4428241 -7.41591128 144.61443748 -7.41588049 143.76094822 C-7.41549881 130.60697246 -7.41849336 117.45299969 -7.42287322 104.29902474 C-7.42710405 91.38658871 -7.42781394 78.47415658 -7.42469517 65.56172019 C-7.42312345 58.64522509 -7.42316112 51.72873915 -7.42774654 44.81224514 C-7.43175716 38.53518306 -7.43126864 32.25813896 -7.42700334 25.9810772 C-7.42628199 23.70992304 -7.42728062 21.4387676 -7.4300986 19.16761507 C-7.43365472 16.11063072 -7.4311842 13.05371211 -7.42706186 9.99672997 C-7.42957073 9.10067663 -7.43207961 8.20462328 -7.43466451 7.28141681 C-7.4135715 0.06838872 -7.19984377 0.02185444 0 0 Z M-4.30286336 1.13293558 C-5.76034074 4.04789035 -5.52325373 6.67040183 -5.61504191 9.92751849 C-5.64578879 10.99418109 -5.64578879 10.99418109 -5.67715682 12.08239243 C-5.74373745 14.49590967 -5.80155289 16.90952698 -5.85784745 19.32330519 C-5.87883034 20.17674269 -5.89981323 21.03018019 -5.92143196 21.90947943 C-6.49299527 45.65693383 -6.44127832 69.40803436 -6.42512955 93.16082736 C-6.42200524 99.25856598 -6.42371114 105.35630196 -6.42521312 111.45404089 C-6.42814984 124.04502721 -6.42644174 136.63600884 -6.42206883 149.22699457 C-6.41766702 161.95787904 -6.41549897 174.68876108 -6.41597104 187.41964632 C-6.41599973 188.22832699 -6.41602843 189.03700766 -6.41605799 189.8701938 C-6.41621439 193.99476821 -6.41640634 198.11934263 -6.41661082 202.24391704 C-6.41801273 231.98121551 -6.41460701 261.71851184 -6.40859342 291.45580965 C-6.40265786 320.87791491 -6.39881571 350.30001926 -6.3977406 379.72212511 C-6.39770619 380.63805937 -6.39767178 381.55399364 -6.39763632 382.49768348 C-6.3973231 390.86413008 -6.39703541 399.23057668 -6.39677835 407.59702328 C-6.3961392 428.38903639 -6.39518003 449.18104949 -6.39400315 469.97306257 C-6.39392318 471.39282292 -6.39392318 471.39282292 -6.39384158 472.8412653 C-6.39122417 518.810478 -6.3849183 564.7796901 -6.37830281 610.74890238 C-6.37601102 626.68825378 -6.37373559 642.62760517 -6.37152791 658.56695658 C-6.37139096 659.55560443 -6.37125401 660.54425228 -6.37111291 661.56285916 C-6.36476185 707.57384069 -6.36105178 753.58482232 -6.35799509 799.59580417 C-6.35779452 802.60860275 -6.35759222 805.62140132 -6.35738935 808.63419989 C-6.35527575 840.03459248 -6.35328873 871.43498508 -6.35135658 902.83537768 C-6.35130137 903.73254499 -6.35124615 904.6297123 -6.35118927 905.55406649 C-6.35108888 907.18650333 -6.35098864 908.81894017 -6.35088861 910.45137701 C-6.34155464 1062.345231 -6.32138876 1214.23908191 -6.30286336 1366.13293558 C-260.07286336 1366.13293558 -513.84286336 1366.13293558 -775.30286336 1366.13293558 C-775.30286336 1521.89293558 -775.30286336 1677.65293558 -775.30286336 1838.13293558 C-332.77286336 1838.13293558 109.75713664 1838.13293558 565.69713664 1838.13293558 C565.69713664 1440.48293558 565.69713664 1042.83293558 565.69713664 633.13293558 C566.35713664 633.13293558 567.01713664 633.13293558 567.69713664 633.13293558 C567.71426806 573.09890917 567.73016864 513.06488248 567.73947978 453.03085428 C567.73961784 452.14299575 567.73975589 451.25513721 567.73989813 450.34037387 C567.74289072 431.0469946 567.74566094 411.7536153 567.74820197 392.46023596 C567.74944936 382.99941057 567.7507459 373.53858518 567.75206828 364.0777598 C567.75219904 363.13627042 567.7523298 362.19478105 567.75246452 361.22476169 C567.75672944 330.68260031 567.7642434 300.14044078 567.77343386 269.59828053 C567.78285746 238.22452791 567.78901999 206.85077632 567.79105163 175.47702232 C567.79133981 171.05046633 567.79166544 166.62391036 567.79201388 162.19735438 C567.79211502 160.89047944 567.79211502 160.89047944 567.7922182 159.55720299 C567.79340207 145.50595822 567.79804593 131.4547166 567.80396867 117.40347312 C567.80984296 103.29330472 567.81210788 89.18313945 567.81063802 75.07296987 C567.80987473 66.6794823 567.81192925 58.28600617 567.81793418 49.89252066 C567.82210313 43.64082599 567.82111023 37.38914248 567.81803554 31.1374474 C567.81760988 28.59637851 567.81890532 26.05530867 567.82201982 23.51424165 C567.82598463 20.08213311 567.82389946 16.65008222 567.82018447 13.21797472 C567.82281148 12.21249112 567.8254385 11.20700752 567.82814512 10.17105472 C567.82589782 9.2635073 567.82365053 8.35595987 567.82133514 7.42091101 C567.82149112 6.63508063 567.8216471 5.84925024 567.82180781 5.03960682 C567.8152387 3.04588844 567.8152387 3.04588844 566.69713664 1.13293558 C378.26713664 1.13293558 189.83713664 1.13293558 -4.30286336 1.13293558 Z " fill="#FEC278" transform="translate(2077.3028633594513,474.86706441640854)"/>
<path d="M0 0 C61.71 0 123.42 0 187 0 C188.89473486 1.89473486 188.12552415 5.22897596 188.12584114 7.74201965 C188.12729458 8.45874434 188.12874802 9.17546903 188.13024551 9.91391265 C188.13393166 12.34603079 188.13040708 14.77808727 188.12698364 17.21020508 C188.12813443 18.95927113 188.12972167 20.70833693 188.13171089 22.45740223 C188.13591003 27.28748606 188.1338109 32.11755029 188.13072467 36.94763422 C188.12847315 42.14741306 188.13194893 47.3471884 188.13470459 52.54696655 C188.13916396 62.7427251 188.13818508 72.9384763 188.13529195 83.13423514 C188.13303857 91.41652725 188.13272511 99.69881729 188.13381577 107.98110962 C188.133969 109.15743857 188.13412223 110.33376752 188.13428011 111.54574281 C188.13459982 113.93502355 188.13492403 116.32430428 188.1352527 118.71358502 C188.13810798 141.14666823 188.13481972 163.57974736 188.12945233 186.0128299 C188.12498425 205.28427146 188.12576017 224.55570699 188.13037109 243.82714844 C188.13571601 266.17696958 188.13783328 288.52678715 188.13475883 310.87660885 C188.13444026 313.25736936 188.13412589 315.63812987 188.13381577 318.01889038 C188.13366149 319.19043743 188.13350721 320.36198449 188.13334826 321.56903297 C188.13248286 329.84661082 188.13394649 338.12418641 188.13629532 346.40176392 C188.1390926 356.48184661 188.13835658 366.56192151 188.13301457 376.6420033 C188.13037659 381.79036593 188.12937413 386.93871554 188.13266373 392.08707809 C188.1356247 396.79210829 188.13403723 401.49711329 188.12868617 406.20214117 C188.12756113 407.91207713 188.12815507 409.62201519 188.13056196 411.33194983 C188.13356455 413.64065774 188.13052294 415.94927721 188.12584114 418.25798035 C188.12567879 419.54506991 188.12551644 420.83215948 188.12534916 422.15825176 C188 425 188 425 187 426 C125.29 426 63.58 426 0 426 C0 285.42 0 144.84 0 0 Z M3 4 C3 142.6 3 281.2 3 424 C63.06 424 123.12 424 185 424 C185 285.4 185 146.8 185 4 C124.94 4 64.88 4 3 4 Z " fill="#FFAF3E" transform="translate(1194,899)"/>
<path d="M0 0 C188.43 0 376.86 0 571 0 C572.16792561 2.33585123 572.124715 3.68582413 572.1241985 6.28797543 C572.12644579 7.19552285 572.12869308 8.10307028 572.13100848 9.03811914 C572.12706796 10.54634454 572.12706796 10.54634454 572.12304783 12.08503914 C572.12420167 13.15102225 572.12535552 14.21700536 572.12654433 15.31529099 C572.12921602 18.92945768 572.12468429 22.54358087 572.12025452 26.15774536 C572.12069011 28.75809581 572.12156478 31.35844621 572.12284368 33.95879638 C572.12492204 39.63417498 572.1232658 45.30954312 572.11920547 50.9849205 C572.11318458 59.42407411 572.11286835 67.86322109 572.11374746 76.30237645 C572.11506319 90.49655014 572.11171305 104.69071918 572.10573006 118.88489151 C572.09981884 132.94473417 572.09596529 147.0045749 572.09487724 161.06441879 C572.0948085 161.93767978 572.09473976 162.81094078 572.09466894 163.71066422 C572.09433062 168.1452746 572.09402923 172.57988498 572.09374207 177.01449536 C572.09164005 208.44830421 572.08489822 239.88211054 572.07543945 271.31591797 C572.06625934 301.85888658 572.05917361 332.4018545 572.05493164 362.94482422 C572.05473435 364.35631248 572.05473435 364.35631248 572.05453308 365.79631565 C572.05321459 375.24589836 572.05193877 384.69548107 572.05069422 394.14506379 C572.04815781 413.39601546 572.04533656 432.64696709 572.04234314 451.8979187 C572.04220585 452.78310214 572.04206856 453.66828558 572.04192711 454.58029277 C572.03272198 513.72019623 572.01687627 572.86009829 572 632 C571.34 632 570.68 632 570 632 C569.67 424.1 569.34 216.2 569 2 C381.56 1.67 194.12 1.34 1 1 C1 14.53 1 28.06 1 42 C0.505 42.495 0.505 42.495 0 43 C-0.10427498 46.11433239 -0.14204572 49.20671417 -0.1386652 52.32167912 C-0.14150742 53.31728506 -0.14434964 54.312891 -0.14727798 55.33866683 C-0.15568827 58.71944341 -0.15689811 62.10018601 -0.15821838 65.48097229 C-0.16277943 67.9113436 -0.16777877 70.34171412 -0.17318195 72.7720837 C-0.18396693 78.07916391 -0.1916221 83.38623525 -0.19658089 88.69332314 C-0.20397117 96.58485185 -0.2170506 104.47636384 -0.23132664 112.36788273 C-0.25517484 125.64062673 -0.27436313 138.91337369 -0.29092598 152.18612862 C-0.30734825 165.3341163 -0.32582308 178.48209844 -0.34705925 191.63007927 C-0.34837686 192.44656878 -0.34969446 193.2630583 -0.351052 194.10428992 C-0.35775378 198.25056746 -0.36449242 202.39684494 -0.37124526 206.5431224 C-0.4190505 235.93653912 -0.46222337 265.32996101 -0.50268555 294.72338867 C-0.54201268 323.28459041 -0.58342966 351.84578787 -0.62768555 380.40698242 C-0.62904808 381.28684983 -0.63041061 382.16671723 -0.63181442 383.07324729 C-0.64549941 391.90897028 -0.65922698 400.74469321 -0.67298577 409.58041609 C-0.70101481 427.58094901 -0.72875952 445.58148237 -0.7563324 463.58201599 C-0.7576006 464.40971168 -0.7588688 465.23740736 -0.76017542 466.09018474 C-0.84487873 521.39344954 -0.92293263 576.6967241 -1 632 C-1.33 632 -1.66 632 -2 632 C-2.01714452 576.20634533 -2.03306166 520.41269041 -2.04234314 464.61903381 C-2.0424812 463.79126315 -2.04261925 462.96349249 -2.04276149 462.11063787 C-2.04575546 444.11436731 -2.04852549 426.11809673 -2.05106533 408.12182611 C-2.0523125 399.29451493 -2.05360908 390.46720375 -2.05493164 381.63989258 C-2.05512778 380.32236394 -2.05512778 380.32236394 -2.05532788 378.97821855 C-2.05957765 350.58624953 -2.06708024 322.19428251 -2.07629722 293.8023147 C-2.08576353 264.58875969 -2.09189322 235.3752058 -2.09391499 206.16164928 C-2.09420308 202.02102569 -2.09452872 197.8804021 -2.09487724 193.73977852 C-2.09494467 192.92496608 -2.09501209 192.11015365 -2.09508156 191.27064992 C-2.09625629 178.23465139 -2.10087526 165.19865633 -2.10683203 152.1626592 C-2.11276748 139.0085078 -2.11495608 125.85435979 -2.11350138 112.70020711 C-2.11281486 105.5927617 -2.11367309 98.48532553 -2.11920547 91.377882 C-2.15589011 42.23259384 -2.15589011 42.23259384 -1.55540466 17.95753479 C-1.53595919 17.13052958 -1.51651371 16.30352436 -1.49647898 15.45145839 C-1.44121336 13.18862352 -1.3786565 10.92615048 -1.31241512 8.66361332 C-1.27647997 7.41367999 -1.24054481 6.16374666 -1.20352072 4.87593657 C-1 2 -1 2 0 0 Z " fill="#FFEACA" transform="translate(2073,476)"/>
<path d="M0 0 C61.71 0 123.42 0 187 0 C188.89473486 1.89473486 188.12552415 5.22897596 188.12584114 7.74201965 C188.12729458 8.45874434 188.12874802 9.17546903 188.13024551 9.91391265 C188.13393166 12.34603079 188.13040708 14.77808727 188.12698364 17.21020508 C188.12813443 18.95927113 188.12972167 20.70833693 188.13171089 22.45740223 C188.13591003 27.28748606 188.1338109 32.11755029 188.13072467 36.94763422 C188.12847315 42.14741306 188.13194893 47.3471884 188.13470459 52.54696655 C188.13916396 62.7427251 188.13818508 72.9384763 188.13529195 83.13423514 C188.13303857 91.41652725 188.13272511 99.69881729 188.13381577 107.98110962 C188.133969 109.15743857 188.13412223 110.33376752 188.13428011 111.54574281 C188.13459982 113.93502355 188.13492403 116.32430428 188.1352527 118.71358502 C188.13810798 141.14666823 188.13481972 163.57974736 188.12945233 186.0128299 C188.12498425 205.28427146 188.12576017 224.55570699 188.13037109 243.82714844 C188.13571601 266.17696958 188.13783328 288.52678715 188.13475883 310.87660885 C188.13444026 313.25736936 188.13412589 315.63812987 188.13381577 318.01889038 C188.13366149 319.19043743 188.13350721 320.36198449 188.13334826 321.56903297 C188.13248286 329.84661082 188.13394649 338.12418641 188.13629532 346.40176392 C188.1390926 356.48184661 188.13835658 366.56192151 188.13301457 376.6420033 C188.13037659 381.79036593 188.12937413 386.93871554 188.13266373 392.08707809 C188.1356247 396.79210829 188.13403723 401.49711329 188.12868617 406.20214117 C188.12756113 407.91207713 188.12815507 409.62201519 188.13056196 411.33194983 C188.13356455 413.64065774 188.13052294 415.94927721 188.12584114 418.25798035 C188.12567879 419.54506991 188.12551644 420.83215948 188.12534916 422.15825176 C188 425 188 425 187 426 C125.29 426 63.58 426 0 426 C0 285.42 0 144.84 0 0 Z M1 2 C0.90096183 4.23512846 0.87444241 6.47346336 0.87415886 8.71078491 C0.87270542 9.42413285 0.87125198 10.1374808 0.86975449 10.87244534 C0.86606837 13.29307677 0.86959291 15.71364625 0.87301636 18.13427734 C0.87186557 19.87509379 0.87027833 21.61591 0.86828911 23.35672569 C0.86408998 28.16400641 0.8661891 32.97126743 0.86927533 37.77854824 C0.87152685 42.95378698 0.86805106 48.1290222 0.86529541 53.30426025 C0.86083605 63.45189187 0.86181491 73.59951612 0.86470805 83.74714804 C0.86696144 91.99034784 0.86727489 100.23354558 0.86618423 108.47674561 C0.866031 109.64752384 0.86587777 110.81830207 0.86571989 112.02455842 C0.86540018 114.40256516 0.86507597 116.7805719 0.8647473 119.15857863 C0.86189202 141.4857916 0.86518028 163.81300048 0.87054767 186.14021277 C0.87501575 205.32069078 0.87423983 224.50116273 0.86962891 243.68164062 C0.86428399 265.92598635 0.86216672 288.17032848 0.86524117 310.41467476 C0.86555974 312.7842013 0.86587411 315.15372785 0.86618423 317.52325439 C0.86633851 318.68927323 0.86649279 319.85529206 0.86665174 321.0566448 C0.86751714 329.29514933 0.86605352 337.53365158 0.86370468 345.77215576 C0.86090739 355.80466132 0.86164343 365.83715906 0.86698543 375.86966372 C0.86962341 380.99372317 0.87062588 386.11776954 0.86733627 391.24182892 C0.86437528 395.92465408 0.86596279 400.60745393 0.87131383 405.29027677 C0.87243886 406.99213741 0.87184494 408.69400016 0.86943804 410.39585948 C0.86643542 412.6936759 0.86947709 414.99140346 0.87415886 417.28921509 C0.87432121 418.57022913 0.87448356 419.85124317 0.87465084 421.17107582 C0.67671466 423.90175218 0.67671466 423.90175218 2 425 C4.36317469 425.09985269 6.69717795 425.13442643 9.06091309 425.12698364 C10.1820715 425.12932363 10.1820715 425.12932363 11.32587957 425.13171089 C13.84943412 425.13572368 16.3729293 425.13253018 18.89648438 425.12939453 C20.69794246 425.13074845 22.49940027 425.13252833 24.30085754 425.13470459 C29.20774064 425.13928006 34.1146028 425.1374889 39.02148628 425.1343255 C44.14465519 425.13180249 49.26782224 425.13413928 54.39099121 425.13571167 C62.99617842 425.13753354 71.60135706 425.13512661 80.20654297 425.13037109 C90.170492 425.12492844 100.13442058 425.12669109 110.09836912 425.1321975 C118.63676488 425.13672814 127.17515447 425.13737942 135.71355104 425.13475883 C140.82036455 425.13319579 145.92716843 425.13300303 151.03398132 425.13629532 C155.83390452 425.13917333 160.63380122 425.13719964 165.43372154 425.13140106 C167.20066471 425.13007308 168.96761008 425.13046821 170.73455238 425.13266373 C173.13609453 425.13537377 175.53755035 425.13199592 177.93908691 425.12698364 C178.64753549 425.12921436 179.35598407 425.13144509 180.08590078 425.13374341 C183.32259622 425.39550225 183.32259622 425.39550225 186 424 C186.09813731 421.75870732 186.12371098 419.51424448 186.12304783 417.27080441 C186.1247786 416.19780054 186.1247786 416.19780054 186.12654433 415.10311982 C186.12921783 412.67573379 186.12468285 410.24841242 186.12025452 407.82102966 C186.12069007 406.07537589 186.12156468 404.32972219 186.12284368 402.58406883 C186.12509179 397.7634542 186.12106307 392.94286155 186.11606562 388.12224972 C186.1117658 382.93271643 186.11320721 377.74318448 186.1139679 372.5536499 C186.11449343 363.55456178 186.11134357 354.55548088 186.10573006 345.55639458 C186.09761902 332.54506515 186.09500025 319.53373922 186.09374207 306.52240754 C186.09155092 285.41475734 186.08488914 264.307111 186.07543945 243.19946289 C186.06626695 222.68969746 186.05918533 202.17993308 186.05493164 181.67016602 C186.05466892 180.40692961 186.05440619 179.1436932 186.05413551 177.84217691 C186.05283052 171.50518541 186.0515668 165.1681939 186.05032361 158.83120239 C186.03994904 106.22079893 186.02232903 53.61039965 186 1 C162.02665225 0.97667376 138.05330618 0.95902218 114.07994938 0.94818783 C102.94953597 0.94302429 91.8191296 0.93598048 80.6887207 0.92456055 C70.99119784 0.91461549 61.29368007 0.908147 51.59615225 0.90591151 C46.45802171 0.9046041 41.31990574 0.90151634 36.18177986 0.89426994 C31.35150554 0.88751253 26.52125188 0.88538247 21.69097328 0.88689232 C19.91274147 0.88661586 18.13450902 0.8846091 16.35628128 0.88079453 C13.93936364 0.87586162 11.52252533 0.8770002 9.10560608 0.87974548 C8.39258443 0.87683264 7.67956279 0.8739198 6.94493443 0.87091869 C3.69218787 0.60275758 3.69218787 0.60275758 1 2 Z " fill="#FFD69B" transform="translate(1194,899)"/>
</svg>
